<?xml version="1.0" encoding="UTF-8" standalone="no"?>
<!DOCTYPE svg PUBLIC "-//W3C//DTD SVG 1.1//EN"
 "http://www.w3.org/Graphics/SVG/1.1/DTD/svg11.dtd">
<!-- Generated by graphviz version 2.38.0 (20140413.2041)
 -->
<!-- Title: controllers_diagram Pages: 1 -->
<svg width="833pt" height="847pt"
 viewBox="0.00 0.00 832.51 847.00" xmlns="http://www.w3.org/2000/svg" xmlns:xlink="http://www.w3.org/1999/xlink">
<g id="graph0" class="graph" transform="scale(1 1) rotate(0) translate(344.366 486.5)">
<title>controllers_diagram</title>
<polygon fill="none" stroke="none" points="-344.366,360.5 -344.366,-486.5 488.148,-486.5 488.148,360.5 -344.366,360.5"/>
<!-- _diagram_info -->
<g id="node1" class="node"><title>_diagram_info</title>
<text text-anchor="start" x="8.31226" y="161.9" font-family="Times,serif" font-size="13.00">Controllers diagram</text>
<text text-anchor="start" x="8.31226" y="174.9" font-family="Times,serif" font-size="13.00">Date: Apr 28 2016 &#45; 17:55</text>
<text text-anchor="start" x="8.31226" y="187.9" font-family="Times,serif" font-size="13.00">Migration version: 20160425235435</text>
<text text-anchor="start" x="8.31226" y="200.9" font-family="Times,serif" font-size="13.00">Generated by RailRoady 1.4.2</text>
<text text-anchor="start" x="8.31226" y="213.9" font-family="Times,serif" font-size="13.00">http://railroady.prestonlee.com</text>
</g>
<!-- ApplicationController -->
<g id="node2" class="node"><title>ApplicationController</title>
<path fill="none" stroke="black" d="M351.852,-69C351.852,-69 472.148,-69 472.148,-69 478.148,-69 484.148,-75 484.148,-81 484.148,-81 484.148,-161 484.148,-161 484.148,-167 478.148,-173 472.148,-173 472.148,-173 351.852,-173 351.852,-173 345.852,-173 339.852,-167 339.852,-161 339.852,-161 339.852,-81 339.852,-81 339.852,-75 345.852,-69 351.852,-69"/>
<text text-anchor="middle" x="412" y="-157.8" font-family="Times,serif" font-size="14.00">ApplicationController</text>
<polyline fill="none" stroke="black" points="339.852,-151 484.148,-151 "/>
<text text-anchor="start" x="347.852" y="-135.8" font-family="Times,serif" font-size="14.00">after_sign_in_path_for</text>
<polyline fill="none" stroke="black" points="339.852,-129 484.148,-129 "/>
<polyline fill="none" stroke="black" points="339.852,-105 484.148,-105 "/>
<text text-anchor="start" x="347.852" y="-89.8" font-family="Times,serif" font-size="14.00">_layout</text>
<text text-anchor="start" x="347.852" y="-75.8" font-family="Times,serif" font-size="14.00">discard_flash</text>
</g>
<!-- CommentsController -->
<g id="node3" class="node"><title>CommentsController</title>
<path fill="none" stroke="black" d="M351.893,118C351.893,118 462.107,118 462.107,118 468.107,118 474.107,112 474.107,106 474.107,106 474.107,-16 474.107,-16 474.107,-22 468.107,-28 462.107,-28 462.107,-28 351.893,-28 351.893,-28 345.893,-28 339.893,-22 339.893,-16 339.893,-16 339.893,106 339.893,106 339.893,112 345.893,118 351.893,118"/>
<text text-anchor="middle" x="407" y="-12.8" font-family="Times,serif" font-size="14.00">CommentsController</text>
<polyline fill="none" stroke="black" points="339.893,-6 474.107,-6 "/>
<text text-anchor="start" x="347.893" y="9.2" font-family="Times,serif" font-size="14.00">create</text>
<text text-anchor="start" x="347.893" y="23.2" font-family="Times,serif" font-size="14.00">destroy</text>
<text text-anchor="start" x="347.893" y="37.2" font-family="Times,serif" font-size="14.00">index</text>
<polyline fill="none" stroke="black" points="339.893,44 474.107,44 "/>
<polyline fill="none" stroke="black" points="339.893,68 474.107,68 "/>
<text text-anchor="start" x="347.893" y="83.2" font-family="Times,serif" font-size="14.00">_layout</text>
<text text-anchor="start" x="347.893" y="97.2" font-family="Times,serif" font-size="14.00">comment_params</text>
<text text-anchor="start" x="347.893" y="111.2" font-family="Times,serif" font-size="14.00">set_current_recipe</text>
</g>
<!-- FlashesController -->
<g id="node4" class="node"><title>FlashesController</title>
<path fill="none" stroke="black" d="M-157.772,-392C-157.772,-392 -66.2275,-392 -66.2275,-392 -60.2275,-392 -54.2275,-398 -54.2275,-404 -54.2275,-404 -54.2275,-470 -54.2275,-470 -54.2275,-476 -60.2275,-482 -66.2275,-482 -66.2275,-482 -157.772,-482 -157.772,-482 -163.772,-482 -169.772,-476 -169.772,-470 -169.772,-470 -169.772,-404 -169.772,-404 -169.772,-398 -163.772,-392 -157.772,-392"/>
<text text-anchor="middle" x="-112" y="-466.8" font-family="Times,serif" font-size="14.00">FlashesController</text>
<polyline fill="none" stroke="black" points="-169.772,-460 -54.2275,-460 "/>
<text text-anchor="start" x="-161.772" y="-444.8" font-family="Times,serif" font-size="14.00">index</text>
<polyline fill="none" stroke="black" points="-169.772,-438 -54.2275,-438 "/>
<polyline fill="none" stroke="black" points="-169.772,-414 -54.2275,-414 "/>
<text text-anchor="start" x="-161.772" y="-398.8" font-family="Times,serif" font-size="14.00">_layout</text>
</g>
<!-- IngredientsController -->
<g id="node5" class="node"><title>IngredientsController</title>
<path fill="none" stroke="black" d="M-328.262,-341C-328.262,-341 -215.738,-341 -215.738,-341 -209.738,-341 -203.738,-347 -203.738,-353 -203.738,-353 -203.738,-433 -203.738,-433 -203.738,-439 -209.738,-445 -215.738,-445 -215.738,-445 -328.262,-445 -328.262,-445 -334.262,-445 -340.262,-439 -340.262,-433 -340.262,-433 -340.262,-353 -340.262,-353 -340.262,-347 -334.262,-341 -328.262,-341"/>
<text text-anchor="middle" x="-272" y="-429.8" font-family="Times,serif" font-size="14.00">IngredientsController</text>
<polyline fill="none" stroke="black" points="-340.262,-423 -203.738,-423 "/>
<text text-anchor="start" x="-332.262" y="-407.8" font-family="Times,serif" font-size="14.00">index</text>
<text text-anchor="start" x="-332.262" y="-393.8" font-family="Times,serif" font-size="14.00">show</text>
<polyline fill="none" stroke="black" points="-340.262,-387 -203.738,-387 "/>
<polyline fill="none" stroke="black" points="-340.262,-363 -203.738,-363 "/>
<text text-anchor="start" x="-332.262" y="-347.8" font-family="Times,serif" font-size="14.00">_layout</text>
</g>
<!-- MadeRecipesController -->
<g id="node6" class="node"><title>MadeRecipesController</title>
<path fill="none" stroke="black" d="M301.3,-290C301.3,-290 438.7,-290 438.7,-290 444.7,-290 450.7,-296 450.7,-302 450.7,-302 450.7,-424 450.7,-424 450.7,-430 444.7,-436 438.7,-436 438.7,-436 301.3,-436 301.3,-436 295.3,-436 289.3,-430 289.3,-424 289.3,-424 289.3,-302 289.3,-302 289.3,-296 295.3,-290 301.3,-290"/>
<text text-anchor="middle" x="370" y="-420.8" font-family="Times,serif" font-size="14.00">MadeRecipesController</text>
<polyline fill="none" stroke="black" points="289.3,-414 450.7,-414 "/>
<text text-anchor="start" x="297.3" y="-398.8" font-family="Times,serif" font-size="14.00">create</text>
<text text-anchor="start" x="297.3" y="-384.8" font-family="Times,serif" font-size="14.00">destroy</text>
<text text-anchor="start" x="297.3" y="-370.8" font-family="Times,serif" font-size="14.00">index</text>
<polyline fill="none" stroke="black" points="289.3,-364 450.7,-364 "/>
<polyline fill="none" stroke="black" points="289.3,-340 450.7,-340 "/>
<text text-anchor="start" x="297.3" y="-324.8" font-family="Times,serif" font-size="14.00">_layout</text>
<text text-anchor="start" x="297.3" y="-310.8" font-family="Times,serif" font-size="14.00">made_recipe_params</text>
<text text-anchor="start" x="297.3" y="-296.8" font-family="Times,serif" font-size="14.00">made_recipes_index_json</text>
</g>
<!-- PhotosController -->
<g id="node7" class="node"><title>PhotosController</title>
<path fill="none" stroke="black" d="M-89.8105,118C-89.8105,118 67.8105,118 67.8105,118 73.8105,118 79.8105,112 79.8105,106 79.8105,106 79.8105,-86 79.8105,-86 79.8105,-92 73.8105,-98 67.8105,-98 67.8105,-98 -89.8105,-98 -89.8105,-98 -95.8105,-98 -101.811,-92 -101.811,-86 -101.811,-86 -101.811,106 -101.811,106 -101.811,112 -95.8105,118 -89.8105,118"/>
<text text-anchor="middle" x="-11" y="-82.8" font-family="Times,serif" font-size="14.00">PhotosController</text>
<polyline fill="none" stroke="black" points="-101.811,-76 79.8105,-76 "/>
<text text-anchor="start" x="-93.8105" y="-60.8" font-family="Times,serif" font-size="14.00">create</text>
<text text-anchor="start" x="-93.8105" y="-46.8" font-family="Times,serif" font-size="14.00">index</text>
<text text-anchor="start" x="-93.8105" y="-32.8" font-family="Times,serif" font-size="14.00">new</text>
<text text-anchor="start" x="-93.8105" y="-18.8" font-family="Times,serif" font-size="14.00">show</text>
<polyline fill="none" stroke="black" points="-101.811,-12 79.8105,-12 "/>
<polyline fill="none" stroke="black" points="-101.811,12 79.8105,12 "/>
<text text-anchor="start" x="-93.8105" y="27.2" font-family="Times,serif" font-size="14.00">raise_error_if_not_image</text>
<text text-anchor="start" x="-93.8105" y="41.2" font-family="Times,serif" font-size="14.00">decode_image</text>
<text text-anchor="start" x="-93.8105" y="55.2" font-family="Times,serif" font-size="14.00">photo_params</text>
<text text-anchor="start" x="-93.8105" y="69.2" font-family="Times,serif" font-size="14.00">_layout</text>
<text text-anchor="start" x="-93.8105" y="83.2" font-family="Times,serif" font-size="14.00">redirect_if_photo_url_invalid</text>
<text text-anchor="start" x="-93.8105" y="97.2" font-family="Times,serif" font-size="14.00">require_recipe_author</text>
<text text-anchor="start" x="-93.8105" y="111.2" font-family="Times,serif" font-size="14.00">show_photo_json</text>
</g>
<!-- ProfilesController -->
<g id="node8" class="node"><title>ProfilesController</title>
<path fill="none" stroke="black" d="M-243.166,220C-243.166,220 -150.834,220 -150.834,220 -144.834,220 -138.834,214 -138.834,208 -138.834,208 -138.834,58 -138.834,58 -138.834,52 -144.834,46 -150.834,46 -150.834,46 -243.166,46 -243.166,46 -249.166,46 -255.166,52 -255.166,58 -255.166,58 -255.166,208 -255.166,208 -255.166,214 -249.166,220 -243.166,220"/>
<text text-anchor="middle" x="-197" y="61.2" font-family="Times,serif" font-size="14.00">ProfilesController</text>
<polyline fill="none" stroke="black" points="-255.166,68 -138.834,68 "/>
<text text-anchor="start" x="-247.166" y="83.2" font-family="Times,serif" font-size="14.00">create</text>
<text text-anchor="start" x="-247.166" y="97.2" font-family="Times,serif" font-size="14.00">edit</text>
<text text-anchor="start" x="-247.166" y="111.2" font-family="Times,serif" font-size="14.00">new</text>
<text text-anchor="start" x="-247.166" y="125.2" font-family="Times,serif" font-size="14.00">show</text>
<text text-anchor="start" x="-247.166" y="139.2" font-family="Times,serif" font-size="14.00">update</text>
<polyline fill="none" stroke="black" points="-255.166,146 -138.834,146 "/>
<polyline fill="none" stroke="black" points="-255.166,170 -138.834,170 "/>
<text text-anchor="start" x="-247.166" y="185.2" font-family="Times,serif" font-size="14.00">_layout</text>
<text text-anchor="start" x="-247.166" y="199.2" font-family="Times,serif" font-size="14.00">decode_image</text>
<text text-anchor="start" x="-247.166" y="213.2" font-family="Times,serif" font-size="14.00">profile_params</text>
</g>
<!-- RatingsController -->
<g id="node9" class="node"><title>RatingsController</title>
<path fill="none" stroke="black" d="M-311.162,-171C-311.162,-171 -218.838,-171 -218.838,-171 -212.838,-171 -206.838,-177 -206.838,-183 -206.838,-183 -206.838,-291 -206.838,-291 -206.838,-297 -212.838,-303 -218.838,-303 -218.838,-303 -311.162,-303 -311.162,-303 -317.162,-303 -323.162,-297 -323.162,-291 -323.162,-291 -323.162,-183 -323.162,-183 -323.162,-177 -317.162,-171 -311.162,-171"/>
<text text-anchor="middle" x="-265" y="-287.8" font-family="Times,serif" font-size="14.00">RatingsController</text>
<polyline fill="none" stroke="black" points="-323.162,-281 -206.838,-281 "/>
<text text-anchor="start" x="-315.162" y="-265.8" font-family="Times,serif" font-size="14.00">create</text>
<text text-anchor="start" x="-315.162" y="-251.8" font-family="Times,serif" font-size="14.00">index</text>
<text text-anchor="start" x="-315.162" y="-237.8" font-family="Times,serif" font-size="14.00">update</text>
<polyline fill="none" stroke="black" points="-323.162,-231 -206.838,-231 "/>
<polyline fill="none" stroke="black" points="-323.162,-207 -206.838,-207 "/>
<text text-anchor="start" x="-315.162" y="-191.8" font-family="Times,serif" font-size="14.00">_layout</text>
<text text-anchor="start" x="-315.162" y="-177.8" font-family="Times,serif" font-size="14.00">rating_params</text>
</g>
<!-- RecentRecipesController -->
<g id="node10" class="node"><title>RecentRecipesController</title>
<path fill="none" stroke="black" d="M-328.366,339C-328.366,339 -195.634,339 -195.634,339 -189.634,339 -183.634,333 -183.634,327 -183.634,327 -183.634,261 -183.634,261 -183.634,255 -189.634,249 -195.634,249 -195.634,249 -328.366,249 -328.366,249 -334.366,249 -340.366,255 -340.366,261 -340.366,261 -340.366,327 -340.366,327 -340.366,333 -334.366,339 -328.366,339"/>
<text text-anchor="middle" x="-262" y="264.2" font-family="Times,serif" font-size="14.00">RecentRecipesController</text>
<polyline fill="none" stroke="black" points="-340.366,271 -183.634,271 "/>
<text text-anchor="start" x="-332.366" y="286.2" font-family="Times,serif" font-size="14.00">index</text>
<polyline fill="none" stroke="black" points="-340.366,293 -183.634,293 "/>
<polyline fill="none" stroke="black" points="-340.366,317 -183.634,317 "/>
<text text-anchor="start" x="-332.366" y="332.2" font-family="Times,serif" font-size="14.00">_layout</text>
</g>
<!-- RecipeIngredientsController -->
<g id="node11" class="node"><title>RecipeIngredientsController</title>
<path fill="none" stroke="black" d="M130.641,-86C130.641,-86 291.359,-86 291.359,-86 297.359,-86 303.359,-92 303.359,-98 303.359,-98 303.359,-248 303.359,-248 303.359,-254 297.359,-260 291.359,-260 291.359,-260 130.641,-260 130.641,-260 124.641,-260 118.641,-254 118.641,-248 118.641,-248 118.641,-98 118.641,-98 118.641,-92 124.641,-86 130.641,-86"/>
<text text-anchor="middle" x="211" y="-244.8" font-family="Times,serif" font-size="14.00">RecipeIngredientsController</text>
<polyline fill="none" stroke="black" points="118.641,-238 303.359,-238 "/>
<text text-anchor="start" x="126.641" y="-222.8" font-family="Times,serif" font-size="14.00">create</text>
<text text-anchor="start" x="126.641" y="-208.8" font-family="Times,serif" font-size="14.00">destroy</text>
<text text-anchor="start" x="126.641" y="-194.8" font-family="Times,serif" font-size="14.00">index</text>
<text text-anchor="start" x="126.641" y="-180.8" font-family="Times,serif" font-size="14.00">new</text>
<text text-anchor="start" x="126.641" y="-166.8" font-family="Times,serif" font-size="14.00">show</text>
<polyline fill="none" stroke="black" points="118.641,-160 303.359,-160 "/>
<polyline fill="none" stroke="black" points="118.641,-136 303.359,-136 "/>
<text text-anchor="start" x="126.641" y="-120.8" font-family="Times,serif" font-size="14.00">_layout</text>
<text text-anchor="start" x="126.641" y="-106.8" font-family="Times,serif" font-size="14.00">added_recipe_ingredient_json</text>
<text text-anchor="start" x="126.641" y="-92.8" font-family="Times,serif" font-size="14.00">recipe_ingredient_params</text>
</g>
<!-- RecipesController -->
<g id="node12" class="node"><title>RecipesController</title>
<path fill="none" stroke="black" d="M-21.9312,-137C-21.9312,-137 71.9312,-137 71.9312,-137 77.9312,-137 83.9312,-143 83.9312,-149 83.9312,-149 83.9312,-341 83.9312,-341 83.9312,-347 77.9312,-353 71.9312,-353 71.9312,-353 -21.9312,-353 -21.9312,-353 -27.9312,-353 -33.9312,-347 -33.9312,-341 -33.9312,-341 -33.9312,-149 -33.9312,-149 -33.9312,-143 -27.9312,-137 -21.9312,-137"/>
<text text-anchor="middle" x="25" y="-337.8" font-family="Times,serif" font-size="14.00">RecipesController</text>
<polyline fill="none" stroke="black" points="-33.9312,-331 83.9312,-331 "/>
<text text-anchor="start" x="-25.9312" y="-315.8" font-family="Times,serif" font-size="14.00">update</text>
<text text-anchor="start" x="-25.9312" y="-301.8" font-family="Times,serif" font-size="14.00">destroy</text>
<text text-anchor="start" x="-25.9312" y="-287.8" font-family="Times,serif" font-size="14.00">edit</text>
<text text-anchor="start" x="-25.9312" y="-273.8" font-family="Times,serif" font-size="14.00">index</text>
<text text-anchor="start" x="-25.9312" y="-259.8" font-family="Times,serif" font-size="14.00">new</text>
<text text-anchor="start" x="-25.9312" y="-245.8" font-family="Times,serif" font-size="14.00">show</text>
<text text-anchor="start" x="-25.9312" y="-231.8" font-family="Times,serif" font-size="14.00">top</text>
<text text-anchor="start" x="-25.9312" y="-217.8" font-family="Times,serif" font-size="14.00">trending</text>
<text text-anchor="start" x="-25.9312" y="-203.8" font-family="Times,serif" font-size="14.00">create</text>
<polyline fill="none" stroke="black" points="-33.9312,-197 83.9312,-197 "/>
<polyline fill="none" stroke="black" points="-33.9312,-173 83.9312,-173 "/>
<text text-anchor="start" x="-25.9312" y="-157.8" font-family="Times,serif" font-size="14.00">_layout</text>
<text text-anchor="start" x="-25.9312" y="-143.8" font-family="Times,serif" font-size="14.00">recipe_params</text>
</g>
<!-- RecommendationsController -->
<g id="node13" class="node"><title>RecommendationsController</title>
<path fill="none" stroke="black" d="M12.1274,339C12.1274,339 165.873,339 165.873,339 171.873,339 177.873,333 177.873,327 177.873,327 177.873,261 177.873,261 177.873,255 171.873,249 165.873,249 165.873,249 12.1274,249 12.1274,249 6.12744,249 0.127441,255 0.127441,261 0.127441,261 0.127441,327 0.127441,327 0.127441,333 6.12744,339 12.1274,339"/>
<text text-anchor="middle" x="89" y="264.2" font-family="Times,serif" font-size="14.00">RecommendationsController</text>
<polyline fill="none" stroke="black" points="0.127441,271 177.873,271 "/>
<text text-anchor="start" x="8.12744" y="286.2" font-family="Times,serif" font-size="14.00">index</text>
<polyline fill="none" stroke="black" points="0.127441,293 177.873,293 "/>
<polyline fill="none" stroke="black" points="0.127441,317 177.873,317 "/>
<text text-anchor="start" x="8.12744" y="332.2" font-family="Times,serif" font-size="14.00">_layout</text>
</g>
<!-- SavedRecipesController -->
<g id="node14" class="node"><title>SavedRecipesController</title>
<path fill="none" stroke="black" d="M249.962,288C249.962,288 378.038,288 378.038,288 384.038,288 390.038,282 390.038,276 390.038,276 390.038,168 390.038,168 390.038,162 384.038,156 378.038,156 378.038,156 249.962,156 249.962,156 243.962,156 237.962,162 237.962,168 237.962,168 237.962,276 237.962,276 237.962,282 243.962,288 249.962,288"/>
<text text-anchor="middle" x="314" y="171.2" font-family="Times,serif" font-size="14.00">SavedRecipesController</text>
<polyline fill="none" stroke="black" points="237.962,178 390.038,178 "/>
<text text-anchor="start" x="245.962" y="193.2" font-family="Times,serif" font-size="14.00">create</text>
<text text-anchor="start" x="245.962" y="207.2" font-family="Times,serif" font-size="14.00">destroy</text>
<text text-anchor="start" x="245.962" y="221.2" font-family="Times,serif" font-size="14.00">index</text>
<polyline fill="none" stroke="black" points="237.962,228 390.038,228 "/>
<polyline fill="none" stroke="black" points="237.962,252 390.038,252 "/>
<text text-anchor="start" x="245.962" y="267.2" font-family="Times,serif" font-size="14.00">_layout</text>
<text text-anchor="start" x="245.962" y="281.2" font-family="Times,serif" font-size="14.00">saved_recipe_params</text>
</g>
<!-- StaticPagesController -->
<g id="node15" class="node"><title>StaticPagesController</title>
<path fill="none" stroke="black" d="M-5.04492,-392C-5.04492,-392 109.045,-392 109.045,-392 115.045,-392 121.045,-398 121.045,-404 121.045,-404 121.045,-470 121.045,-470 121.045,-476 115.045,-482 109.045,-482 109.045,-482 -5.04492,-482 -5.04492,-482 -11.0449,-482 -17.0449,-476 -17.0449,-470 -17.0449,-470 -17.0449,-404 -17.0449,-404 -17.0449,-398 -11.0449,-392 -5.04492,-392"/>
<text text-anchor="middle" x="52" y="-466.8" font-family="Times,serif" font-size="14.00">StaticPagesController</text>
<polyline fill="none" stroke="black" points="-17.0449,-460 121.045,-460 "/>
<text text-anchor="start" x="-9.04492" y="-444.8" font-family="Times,serif" font-size="14.00">index</text>
<polyline fill="none" stroke="black" points="-17.0449,-438 121.045,-438 "/>
<polyline fill="none" stroke="black" points="-17.0449,-414 121.045,-414 "/>
<text text-anchor="start" x="-9.04492" y="-398.8" font-family="Times,serif" font-size="14.00">_layout</text>
</g>
<!-- SubscriptionsController -->
<g id="node16" class="node"><title>SubscriptionsController</title>
<path fill="none" stroke="black" d="M-277.166,16C-277.166,16 -142.834,16 -142.834,16 -136.834,16 -130.834,10 -130.834,4 -130.834,4 -130.834,-118 -130.834,-118 -130.834,-124 -136.834,-130 -142.834,-130 -142.834,-130 -277.166,-130 -277.166,-130 -283.166,-130 -289.166,-124 -289.166,-118 -289.166,-118 -289.166,4 -289.166,4 -289.166,10 -283.166,16 -277.166,16"/>
<text text-anchor="middle" x="-210" y="-114.8" font-family="Times,serif" font-size="14.00">SubscriptionsController</text>
<polyline fill="none" stroke="black" points="-289.166,-108 -130.834,-108 "/>
<text text-anchor="start" x="-281.166" y="-92.8" font-family="Times,serif" font-size="14.00">create</text>
<text text-anchor="start" x="-281.166" y="-78.8" font-family="Times,serif" font-size="14.00">destroy</text>
<text text-anchor="start" x="-281.166" y="-64.8" font-family="Times,serif" font-size="14.00">index</text>
<polyline fill="none" stroke="black" points="-289.166,-58 -130.834,-58 "/>
<polyline fill="none" stroke="black" points="-289.166,-34 -130.834,-34 "/>
<text text-anchor="start" x="-281.166" y="-18.8" font-family="Times,serif" font-size="14.00">_layout</text>
<text text-anchor="start" x="-281.166" y="-4.8" font-family="Times,serif" font-size="14.00">subscription_params</text>
<text text-anchor="start" x="-281.166" y="9.2" font-family="Times,serif" font-size="14.00">subscriptions_index_json</text>
</g>
<!-- TaggingsController -->
<g id="node17" class="node"><title>TaggingsController</title>
<path fill="none" stroke="black" d="M131.486,118C131.486,118 294.514,118 294.514,118 300.514,118 306.514,112 306.514,106 306.514,106 306.514,-44 306.514,-44 306.514,-50 300.514,-56 294.514,-56 294.514,-56 131.486,-56 131.486,-56 125.486,-56 119.486,-50 119.486,-44 119.486,-44 119.486,106 119.486,106 119.486,112 125.486,118 131.486,118"/>
<text text-anchor="middle" x="213" y="-40.8" font-family="Times,serif" font-size="14.00">TaggingsController</text>
<polyline fill="none" stroke="black" points="119.486,-34 306.514,-34 "/>
<text text-anchor="start" x="127.486" y="-18.8" font-family="Times,serif" font-size="14.00">create</text>
<text text-anchor="start" x="127.486" y="-4.8" font-family="Times,serif" font-size="14.00">destroy</text>
<text text-anchor="start" x="127.486" y="9.2" font-family="Times,serif" font-size="14.00">index</text>
<polyline fill="none" stroke="black" points="119.486,16 306.514,16 "/>
<polyline fill="none" stroke="black" points="119.486,40 306.514,40 "/>
<text text-anchor="start" x="127.486" y="55.2" font-family="Times,serif" font-size="14.00">_layout</text>
<text text-anchor="start" x="127.486" y="69.2" font-family="Times,serif" font-size="14.00">extract_taggable</text>
<text text-anchor="start" x="127.486" y="83.2" font-family="Times,serif" font-size="14.00">require_taggable_current_user</text>
<text text-anchor="start" x="127.486" y="97.2" font-family="Times,serif" font-size="14.00">set_parent</text>
<text text-anchor="start" x="127.486" y="111.2" font-family="Times,serif" font-size="14.00">tagging_params</text>
</g>
<!-- TagsController -->
<g id="node18" class="node"><title>TagsController</title>
<path fill="none" stroke="black" d="M164.748,-290C164.748,-290 249.252,-290 249.252,-290 255.252,-290 261.252,-296 261.252,-302 261.252,-302 261.252,-452 261.252,-452 261.252,-458 255.252,-464 249.252,-464 249.252,-464 164.748,-464 164.748,-464 158.748,-464 152.748,-458 152.748,-452 152.748,-452 152.748,-302 152.748,-302 152.748,-296 158.748,-290 164.748,-290"/>
<text text-anchor="middle" x="207" y="-448.8" font-family="Times,serif" font-size="14.00">TagsController</text>
<polyline fill="none" stroke="black" points="152.748,-442 261.252,-442 "/>
<text text-anchor="start" x="160.748" y="-426.8" font-family="Times,serif" font-size="14.00">create</text>
<text text-anchor="start" x="160.748" y="-412.8" font-family="Times,serif" font-size="14.00">destroy</text>
<text text-anchor="start" x="160.748" y="-398.8" font-family="Times,serif" font-size="14.00">index</text>
<text text-anchor="start" x="160.748" y="-384.8" font-family="Times,serif" font-size="14.00">show</text>
<polyline fill="none" stroke="black" points="152.748,-378 261.252,-378 "/>
<polyline fill="none" stroke="black" points="152.748,-354 261.252,-354 "/>
<text text-anchor="start" x="160.748" y="-338.8" font-family="Times,serif" font-size="14.00">_layout</text>
<text text-anchor="start" x="160.748" y="-324.8" font-family="Times,serif" font-size="14.00">extract_taggable</text>
<text text-anchor="start" x="160.748" y="-310.8" font-family="Times,serif" font-size="14.00">set_parent</text>
<text text-anchor="start" x="160.748" y="-296.8" font-family="Times,serif" font-size="14.00">tag_params</text>
</g>
<!-- UnitsController -->
<g id="node19" class="node"><title>UnitsController</title>
<path fill="none" stroke="black" d="M-140.941,356C-140.941,356 -61.0586,356 -61.0586,356 -55.0586,356 -49.0586,350 -49.0586,344 -49.0586,344 -49.0586,264 -49.0586,264 -49.0586,258 -55.0586,252 -61.0586,252 -61.0586,252 -140.941,252 -140.941,252 -146.941,252 -152.941,258 -152.941,264 -152.941,264 -152.941,344 -152.941,344 -152.941,350 -146.941,356 -140.941,356"/>
<text text-anchor="middle" x="-101" y="267.2" font-family="Times,serif" font-size="14.00">UnitsController</text>
<polyline fill="none" stroke="black" points="-152.941,274 -49.0586,274 "/>
<text text-anchor="start" x="-144.941" y="289.2" font-family="Times,serif" font-size="14.00">index</text>
<text text-anchor="start" x="-144.941" y="303.2" font-family="Times,serif" font-size="14.00">show</text>
<polyline fill="none" stroke="black" points="-152.941,310 -49.0586,310 "/>
<polyline fill="none" stroke="black" points="-152.941,334 -49.0586,334 "/>
<text text-anchor="start" x="-144.941" y="349.2" font-family="Times,serif" font-size="14.00">_layout</text>
</g>
<!-- UsersController -->
<g id="node20" class="node"><title>UsersController</title>
<path fill="none" stroke="black" d="M-158.11,-171C-158.11,-171 -75.8896,-171 -75.8896,-171 -69.8896,-171 -63.8896,-177 -63.8896,-183 -63.8896,-183 -63.8896,-347 -63.8896,-347 -63.8896,-353 -69.8896,-359 -75.8896,-359 -75.8896,-359 -158.11,-359 -158.11,-359 -164.11,-359 -170.11,-353 -170.11,-347 -170.11,-347 -170.11,-183 -170.11,-183 -170.11,-177 -164.11,-171 -158.11,-171"/>
<text text-anchor="middle" x="-117" y="-343.8" font-family="Times,serif" font-size="14.00">UsersController</text>
<polyline fill="none" stroke="black" points="-170.11,-337 -63.8896,-337 "/>
<text text-anchor="start" x="-162.11" y="-321.8" font-family="Times,serif" font-size="14.00">best_cooks</text>
<text text-anchor="start" x="-162.11" y="-307.8" font-family="Times,serif" font-size="14.00">index</text>
<text text-anchor="start" x="-162.11" y="-293.8" font-family="Times,serif" font-size="14.00">show</text>
<text text-anchor="start" x="-162.11" y="-279.8" font-family="Times,serif" font-size="14.00">top</text>
<text text-anchor="start" x="-162.11" y="-265.8" font-family="Times,serif" font-size="14.00">top_cooks</text>
<text text-anchor="start" x="-162.11" y="-251.8" font-family="Times,serif" font-size="14.00">update</text>
<polyline fill="none" stroke="black" points="-170.11,-245 -63.8896,-245 "/>
<polyline fill="none" stroke="black" points="-170.11,-221 -63.8896,-221 "/>
<text text-anchor="start" x="-162.11" y="-205.8" font-family="Times,serif" font-size="14.00">_layout</text>
<text text-anchor="start" x="-162.11" y="-191.8" font-family="Times,serif" font-size="14.00">show_user_json</text>
<text text-anchor="start" x="-162.11" y="-177.8" font-family="Times,serif" font-size="14.00">user_params</text>
</g>
</g>
</svg>
