<?xml version="1.0" encoding="UTF-8" standalone="no"?>
<!DOCTYPE svg PUBLIC "-//W3C//DTD SVG 1.1//EN"
 "http://www.w3.org/Graphics/SVG/1.1/DTD/svg11.dtd">
<!-- Generated by graphviz version 2.38.0 (20140413.2041)
 -->
<!-- Title: models_diagram Pages: 1 -->
<svg width="2204pt" height="1312pt"
 viewBox="0.00 0.00 2204.00 1312.00" xmlns="http://www.w3.org/2000/svg" xmlns:xlink="http://www.w3.org/1999/xlink">
<g id="graph0" class="graph" transform="scale(1 1) rotate(0) translate(4 1308)">
<title>models_diagram</title>
<polygon fill="none" stroke="none" points="-4,4 -4,-1308 2200,-1308 2200,4 -4,4"/>
<!-- _diagram_info -->
<g id="node1" class="node"><title>_diagram_info</title>
<text text-anchor="start" x="410.312" y="-1233.6" font-family="Times,serif" font-size="13.00">Models diagram</text>
<text text-anchor="start" x="410.312" y="-1220.6" font-family="Times,serif" font-size="13.00">Date: Apr 28 2016 &#45; 17:55</text>
<text text-anchor="start" x="410.312" y="-1207.6" font-family="Times,serif" font-size="13.00">Migration version: 20160425235435</text>
<text text-anchor="start" x="410.312" y="-1194.6" font-family="Times,serif" font-size="13.00">Generated by RailRoady 1.4.2</text>
<text text-anchor="start" x="410.312" y="-1181.6" font-family="Times,serif" font-size="13.00">http://railroady.prestonlee.com</text>
</g>
<!-- Activity -->
<g id="node2" class="node"><title>Activity</title>
<path fill="none" stroke="black" d="M640.138,-1147.5C640.138,-1147.5 863.862,-1147.5 863.862,-1147.5 869.862,-1147.5 875.862,-1153.5 875.862,-1159.5 875.862,-1159.5 875.862,-1263.5 875.862,-1263.5 875.862,-1269.5 869.862,-1275.5 863.862,-1275.5 863.862,-1275.5 640.138,-1275.5 640.138,-1275.5 634.138,-1275.5 628.138,-1269.5 628.138,-1263.5 628.138,-1263.5 628.138,-1159.5 628.138,-1159.5 628.138,-1153.5 634.138,-1147.5 640.138,-1147.5"/>
<text text-anchor="middle" x="752" y="-1260.3" font-family="Times,serif" font-size="14.00">Activity</text>
<polyline fill="none" stroke="black" points="628.138,-1253.5 875.862,-1253.5 "/>
<text text-anchor="start" x="636.138" y="-1238.3" font-family="Times,serif" font-size="14.00">activable_id :integer</text>
<text text-anchor="start" x="636.138" y="-1224.3" font-family="Times,serif" font-size="14.00">user_id :integer</text>
<text text-anchor="start" x="636.138" y="-1210.3" font-family="Times,serif" font-size="14.00">event :character varying</text>
<text text-anchor="start" x="636.138" y="-1196.3" font-family="Times,serif" font-size="14.00">id :integer</text>
<text text-anchor="start" x="636.138" y="-1182.3" font-family="Times,serif" font-size="14.00">activable_type :character varying</text>
<text text-anchor="start" x="636.138" y="-1168.3" font-family="Times,serif" font-size="14.00">created_at :timestamp without time zone</text>
<text text-anchor="start" x="636.138" y="-1154.3" font-family="Times,serif" font-size="14.00">updated_at :timestamp without time zone</text>
</g>
<!-- Comment -->
<g id="node3" class="node"><title>Comment</title>
<path fill="none" stroke="black" d="M116.138,-540.5C116.138,-540.5 339.862,-540.5 339.862,-540.5 345.862,-540.5 351.862,-546.5 351.862,-552.5 351.862,-552.5 351.862,-642.5 351.862,-642.5 351.862,-648.5 345.862,-654.5 339.862,-654.5 339.862,-654.5 116.138,-654.5 116.138,-654.5 110.138,-654.5 104.138,-648.5 104.138,-642.5 104.138,-642.5 104.138,-552.5 104.138,-552.5 104.138,-546.5 110.138,-540.5 116.138,-540.5"/>
<text text-anchor="middle" x="228" y="-639.3" font-family="Times,serif" font-size="14.00">Comment</text>
<polyline fill="none" stroke="black" points="104.138,-632.5 351.862,-632.5 "/>
<text text-anchor="start" x="112.138" y="-617.3" font-family="Times,serif" font-size="14.00">id :integer</text>
<text text-anchor="start" x="112.138" y="-603.3" font-family="Times,serif" font-size="14.00">comment_description :text</text>
<text text-anchor="start" x="112.138" y="-589.3" font-family="Times,serif" font-size="14.00">user_id :integer</text>
<text text-anchor="start" x="112.138" y="-575.3" font-family="Times,serif" font-size="14.00">recipe_id :integer</text>
<text text-anchor="start" x="112.138" y="-561.3" font-family="Times,serif" font-size="14.00">created_at :timestamp without time zone</text>
<text text-anchor="start" x="112.138" y="-547.3" font-family="Times,serif" font-size="14.00">updated_at :timestamp without time zone</text>
</g>
<!-- Profile -->
<g id="node7" class="node"><title>Profile</title>
<path fill="none" stroke="black" d="M304.541,-276.5C304.541,-276.5 569.459,-276.5 569.459,-276.5 575.459,-276.5 581.459,-282.5 581.459,-288.5 581.459,-288.5 581.459,-490.5 581.459,-490.5 581.459,-496.5 575.459,-502.5 569.459,-502.5 569.459,-502.5 304.541,-502.5 304.541,-502.5 298.541,-502.5 292.541,-496.5 292.541,-490.5 292.541,-490.5 292.541,-288.5 292.541,-288.5 292.541,-282.5 298.541,-276.5 304.541,-276.5"/>
<text text-anchor="middle" x="437" y="-487.3" font-family="Times,serif" font-size="14.00">Profile</text>
<polyline fill="none" stroke="black" points="292.541,-480.5 581.459,-480.5 "/>
<text text-anchor="start" x="300.541" y="-465.3" font-family="Times,serif" font-size="14.00">updated_at :timestamp without time zone</text>
<text text-anchor="start" x="300.541" y="-451.3" font-family="Times,serif" font-size="14.00">bio :text</text>
<text text-anchor="start" x="300.541" y="-437.3" font-family="Times,serif" font-size="14.00">tagline :character varying</text>
<text text-anchor="start" x="300.541" y="-423.3" font-family="Times,serif" font-size="14.00">first_name :character varying</text>
<text text-anchor="start" x="300.541" y="-409.3" font-family="Times,serif" font-size="14.00">last_name :character varying</text>
<text text-anchor="start" x="300.541" y="-395.3" font-family="Times,serif" font-size="14.00">city :character varying</text>
<text text-anchor="start" x="300.541" y="-381.3" font-family="Times,serif" font-size="14.00">state :character varying</text>
<text text-anchor="start" x="300.541" y="-367.3" font-family="Times,serif" font-size="14.00">user_id :integer</text>
<text text-anchor="start" x="300.541" y="-353.3" font-family="Times,serif" font-size="14.00">avatar_file_name :character varying</text>
<text text-anchor="start" x="300.541" y="-339.3" font-family="Times,serif" font-size="14.00">avatar_content_type :character varying</text>
<text text-anchor="start" x="300.541" y="-325.3" font-family="Times,serif" font-size="14.00">avatar_file_size :integer</text>
<text text-anchor="start" x="300.541" y="-311.3" font-family="Times,serif" font-size="14.00">avatar_updated_at :timestamp without time zone</text>
<text text-anchor="start" x="300.541" y="-297.3" font-family="Times,serif" font-size="14.00">created_at :timestamp without time zone</text>
<text text-anchor="start" x="300.541" y="-283.3" font-family="Times,serif" font-size="14.00">id :integer</text>
</g>
<!-- Comment&#45;&gt;Profile -->
<g id="edge1" class="edge"><title>Comment&#45;&gt;Profile</title>
<path fill="none" stroke="#2743ed" d="M290.806,-534.596C299.235,-526.288 308.097,-517.553 317.115,-508.664"/>
<ellipse fill="none" stroke="#2743ed" cx="287.683" cy="-537.674" rx="4.00002" ry="4.00002"/>
<ellipse fill="#2743ed" stroke="#2743ed" cx="320.212" cy="-505.612" rx="4.00002" ry="4.00002"/>
</g>
<!-- Ingredient -->
<g id="node4" class="node"><title>Ingredient</title>
<path fill="none" stroke="black" d="M1500.14,-968.5C1500.14,-968.5 1723.86,-968.5 1723.86,-968.5 1729.86,-968.5 1735.86,-974.5 1735.86,-980.5 1735.86,-980.5 1735.86,-1056.5 1735.86,-1056.5 1735.86,-1062.5 1729.86,-1068.5 1723.86,-1068.5 1723.86,-1068.5 1500.14,-1068.5 1500.14,-1068.5 1494.14,-1068.5 1488.14,-1062.5 1488.14,-1056.5 1488.14,-1056.5 1488.14,-980.5 1488.14,-980.5 1488.14,-974.5 1494.14,-968.5 1500.14,-968.5"/>
<text text-anchor="middle" x="1612" y="-1053.3" font-family="Times,serif" font-size="14.00">Ingredient</text>
<polyline fill="none" stroke="black" points="1488.14,-1046.5 1735.86,-1046.5 "/>
<text text-anchor="start" x="1496.14" y="-1031.3" font-family="Times,serif" font-size="14.00">id :integer</text>
<text text-anchor="start" x="1496.14" y="-1017.3" font-family="Times,serif" font-size="14.00">name :character varying</text>
<text text-anchor="start" x="1496.14" y="-1003.3" font-family="Times,serif" font-size="14.00">calories :integer</text>
<text text-anchor="start" x="1496.14" y="-989.3" font-family="Times,serif" font-size="14.00">created_at :timestamp without time zone</text>
<text text-anchor="start" x="1496.14" y="-975.3" font-family="Times,serif" font-size="14.00">updated_at :timestamp without time zone</text>
</g>
<!-- RecipeIngredient -->
<g id="node10" class="node"><title>RecipeIngredient</title>
<path fill="none" stroke="black" d="M1766.14,-747.5C1766.14,-747.5 1989.86,-747.5 1989.86,-747.5 1995.86,-747.5 2001.86,-753.5 2001.86,-759.5 2001.86,-759.5 2001.86,-863.5 2001.86,-863.5 2001.86,-869.5 1995.86,-875.5 1989.86,-875.5 1989.86,-875.5 1766.14,-875.5 1766.14,-875.5 1760.14,-875.5 1754.14,-869.5 1754.14,-863.5 1754.14,-863.5 1754.14,-759.5 1754.14,-759.5 1754.14,-753.5 1760.14,-747.5 1766.14,-747.5"/>
<text text-anchor="middle" x="1878" y="-860.3" font-family="Times,serif" font-size="14.00">RecipeIngredient</text>
<polyline fill="none" stroke="black" points="1754.14,-853.5 2001.86,-853.5 "/>
<text text-anchor="start" x="1762.14" y="-838.3" font-family="Times,serif" font-size="14.00">unit_id :integer</text>
<text text-anchor="start" x="1762.14" y="-824.3" font-family="Times,serif" font-size="14.00">recipe_id :integer</text>
<text text-anchor="start" x="1762.14" y="-810.3" font-family="Times,serif" font-size="14.00">ingredient_id :integer</text>
<text text-anchor="start" x="1762.14" y="-796.3" font-family="Times,serif" font-size="14.00">id :integer</text>
<text text-anchor="start" x="1762.14" y="-782.3" font-family="Times,serif" font-size="14.00">quantity :numeric</text>
<text text-anchor="start" x="1762.14" y="-768.3" font-family="Times,serif" font-size="14.00">created_at :timestamp without time zone</text>
<text text-anchor="start" x="1762.14" y="-754.3" font-family="Times,serif" font-size="14.00">updated_at :timestamp without time zone</text>
</g>
<!-- Ingredient&#45;&gt;RecipeIngredient -->
<g id="edge2" class="edge"><title>Ingredient&#45;&gt;RecipeIngredient</title>
<path fill="none" stroke="#31a541" d="M1682.16,-963.432C1714.55,-938.465 1753.41,-908.519 1787.94,-881.907"/>
<ellipse fill="none" stroke="#31a541" cx="1678.88" cy="-965.956" rx="4.00002" ry="4.00002"/>
<polygon fill="#31a541" stroke="#31a541" points="1788.23,-881.68 1798.9,-879.14 1792.2,-878.628 1796.16,-875.576 1796.16,-875.576 1796.16,-875.576 1792.2,-878.628 1793.41,-872.011 1788.23,-881.68 1788.23,-881.68"/>
</g>
<!-- MadeRecipe -->
<g id="node5" class="node"><title>MadeRecipe</title>
<path fill="none" stroke="black" d="M565.138,-968.5C565.138,-968.5 788.862,-968.5 788.862,-968.5 794.862,-968.5 800.862,-974.5 800.862,-980.5 800.862,-980.5 800.862,-1056.5 800.862,-1056.5 800.862,-1062.5 794.862,-1068.5 788.862,-1068.5 788.862,-1068.5 565.138,-1068.5 565.138,-1068.5 559.138,-1068.5 553.138,-1062.5 553.138,-1056.5 553.138,-1056.5 553.138,-980.5 553.138,-980.5 553.138,-974.5 559.138,-968.5 565.138,-968.5"/>
<text text-anchor="middle" x="677" y="-1053.3" font-family="Times,serif" font-size="14.00">MadeRecipe</text>
<polyline fill="none" stroke="black" points="553.138,-1046.5 800.862,-1046.5 "/>
<text text-anchor="start" x="561.138" y="-1031.3" font-family="Times,serif" font-size="14.00">id :integer</text>
<text text-anchor="start" x="561.138" y="-1017.3" font-family="Times,serif" font-size="14.00">user_id :integer</text>
<text text-anchor="start" x="561.138" y="-1003.3" font-family="Times,serif" font-size="14.00">recipe_id :integer</text>
<text text-anchor="start" x="561.138" y="-989.3" font-family="Times,serif" font-size="14.00">created_at :timestamp without time zone</text>
<text text-anchor="start" x="561.138" y="-975.3" font-family="Times,serif" font-size="14.00">updated_at :timestamp without time zone</text>
</g>
<!-- Photo -->
<g id="node6" class="node"><title>Photo</title>
<path fill="none" stroke="black" d="M305.693,-733.5C305.693,-733.5 568.307,-733.5 568.307,-733.5 574.307,-733.5 580.307,-739.5 580.307,-745.5 580.307,-745.5 580.307,-877.5 580.307,-877.5 580.307,-883.5 574.307,-889.5 568.307,-889.5 568.307,-889.5 305.693,-889.5 305.693,-889.5 299.693,-889.5 293.693,-883.5 293.693,-877.5 293.693,-877.5 293.693,-745.5 293.693,-745.5 293.693,-739.5 299.693,-733.5 305.693,-733.5"/>
<text text-anchor="middle" x="437" y="-874.3" font-family="Times,serif" font-size="14.00">Photo</text>
<polyline fill="none" stroke="black" points="293.693,-867.5 580.307,-867.5 "/>
<text text-anchor="start" x="301.693" y="-852.3" font-family="Times,serif" font-size="14.00">updated_at :timestamp without time zone</text>
<text text-anchor="start" x="301.693" y="-838.3" font-family="Times,serif" font-size="14.00">caption :character varying</text>
<text text-anchor="start" x="301.693" y="-824.3" font-family="Times,serif" font-size="14.00">photo_file_name :character varying</text>
<text text-anchor="start" x="301.693" y="-810.3" font-family="Times,serif" font-size="14.00">photo_content_type :character varying</text>
<text text-anchor="start" x="301.693" y="-796.3" font-family="Times,serif" font-size="14.00">photo_file_size :integer</text>
<text text-anchor="start" x="301.693" y="-782.3" font-family="Times,serif" font-size="14.00">photo_updated_at :timestamp without time zone</text>
<text text-anchor="start" x="301.693" y="-768.3" font-family="Times,serif" font-size="14.00">recipe_id :integer</text>
<text text-anchor="start" x="301.693" y="-754.3" font-family="Times,serif" font-size="14.00">created_at :timestamp without time zone</text>
<text text-anchor="start" x="301.693" y="-740.3" font-family="Times,serif" font-size="14.00">id :integer</text>
</g>
<!-- MadeRecipe&#45;&gt;Photo -->
<g id="edge6" class="edge"><title>MadeRecipe&#45;&gt;Photo</title>
<path fill="none" stroke="#c66185" d="M608.012,-961.717C603.254,-957.771 598.546,-953.837 594,-950 573.745,-932.904 552.246,-914.35 531.867,-896.569"/>
<polygon fill="#c66185" stroke="#c66185" points="608.338,-961.986 613.182,-971.824 612.193,-965.17 616.048,-968.355 616.048,-968.355 616.048,-968.355 612.193,-965.17 618.914,-964.885 608.338,-961.986 608.338,-961.986"/>
<polygon fill="#c66185" stroke="#c66185" points="531.647,-896.376 527.078,-886.408 527.882,-893.086 524.117,-889.796 524.117,-889.796 524.117,-889.796 527.882,-893.086 521.156,-893.185 531.647,-896.376 531.647,-896.376"/>
</g>
<!-- MadeRecipe&#45;&gt;Profile -->
<g id="edge3" class="edge"><title>MadeRecipe&#45;&gt;Profile</title>
<path fill="none" stroke="#7dc1bb" d="M671.032,-960.164C657.836,-833.429 627.316,-540.572 627,-540 616.615,-521.18 602.782,-503.908 587.295,-488.316"/>
<ellipse fill="none" stroke="#7dc1bb" cx="671.462" cy="-964.289" rx="4" ry="4"/>
<ellipse fill="#7dc1bb" stroke="#7dc1bb" cx="584.374" cy="-485.449" rx="4.00002" ry="4.00002"/>
</g>
<!-- MadeRecipe&#45;&gt;Profile -->
<g id="edge5" class="edge"><title>MadeRecipe&#45;&gt;Profile</title>
<path fill="none" stroke="#53575a" d="M655.245,-960.666C650.27,-946.803 645.212,-931.948 641,-918 612.827,-824.715 662.511,-768.97 589,-705 578.596,-695.946 104.249,-665.232 95,-655 60.727,-617.083 67.0178,-582.771 95,-540 137.188,-475.516 213.978,-438.681 284.12,-417.723"/>
<ellipse fill="none" stroke="#53575a" cx="656.632" cy="-964.492" rx="4.00001" ry="4.00001"/>
<ellipse fill="#53575a" stroke="#53575a" cx="288.357" cy="-416.489" rx="4.00001" ry="4.00001"/>
<text text-anchor="middle" x="477.71" y="-675.8" font-family="Times,serif" font-size="14.00">original_user_profile</text>
</g>
<!-- Recipe -->
<g id="node9" class="node"><title>Recipe</title>
<path fill="none" stroke="black" d="M906.138,-1119.5C906.138,-1119.5 1129.86,-1119.5 1129.86,-1119.5 1135.86,-1119.5 1141.86,-1125.5 1141.86,-1131.5 1141.86,-1131.5 1141.86,-1291.5 1141.86,-1291.5 1141.86,-1297.5 1135.86,-1303.5 1129.86,-1303.5 1129.86,-1303.5 906.138,-1303.5 906.138,-1303.5 900.138,-1303.5 894.138,-1297.5 894.138,-1291.5 894.138,-1291.5 894.138,-1131.5 894.138,-1131.5 894.138,-1125.5 900.138,-1119.5 906.138,-1119.5"/>
<text text-anchor="middle" x="1018" y="-1288.3" font-family="Times,serif" font-size="14.00">Recipe</text>
<polyline fill="none" stroke="black" points="894.138,-1281.5 1141.86,-1281.5 "/>
<text text-anchor="start" x="902.138" y="-1266.3" font-family="Times,serif" font-size="14.00">link :character varying</text>
<text text-anchor="start" x="902.138" y="-1252.3" font-family="Times,serif" font-size="14.00">name :character varying</text>
<text text-anchor="start" x="902.138" y="-1238.3" font-family="Times,serif" font-size="14.00">description :character varying</text>
<text text-anchor="start" x="902.138" y="-1224.3" font-family="Times,serif" font-size="14.00">prep_time :integer</text>
<text text-anchor="start" x="902.138" y="-1210.3" font-family="Times,serif" font-size="14.00">cook_time :integer</text>
<text text-anchor="start" x="902.138" y="-1196.3" font-family="Times,serif" font-size="14.00">user_id :integer</text>
<text text-anchor="start" x="902.138" y="-1182.3" font-family="Times,serif" font-size="14.00">created_at :timestamp without time zone</text>
<text text-anchor="start" x="902.138" y="-1168.3" font-family="Times,serif" font-size="14.00">updated_at :timestamp without time zone</text>
<text text-anchor="start" x="902.138" y="-1154.3" font-family="Times,serif" font-size="14.00">original_id :integer</text>
<text text-anchor="start" x="902.138" y="-1140.3" font-family="Times,serif" font-size="14.00">instructions :text</text>
<text text-anchor="start" x="902.138" y="-1126.3" font-family="Times,serif" font-size="14.00">id :integer</text>
</g>
<!-- MadeRecipe&#45;&gt;Recipe -->
<g id="edge8" class="edge"><title>MadeRecipe&#45;&gt;Recipe</title>
<path fill="none" stroke="#d07771" d="M668.113,-1078.87C669.564,-1087.09 672.722,-1094.82 678.489,-1101 708.144,-1132.76 827.046,-1106.76 884.442,-1119.74"/>
<polygon fill="#d07771" stroke="#d07771" points="668.089,-1078.62 671.607,-1068.23 667.608,-1073.64 667.128,-1068.67 667.128,-1068.67 667.128,-1068.67 667.608,-1073.64 662.648,-1069.1 668.089,-1078.62 668.089,-1078.62"/>
<polygon fill="#d07771" stroke="#d07771" points="884.474,-1119.75 892.835,-1126.84 889.278,-1121.13 894.082,-1122.52 894.082,-1122.52 894.082,-1122.52 889.278,-1121.13 895.329,-1118.19 884.474,-1119.75 884.474,-1119.75"/>
<text text-anchor="middle" x="749.755" y="-1089.8" font-family="Times,serif" font-size="14.00">recipes_by_original_user</text>
</g>
<!-- User -->
<g id="node17" class="node"><title>User</title>
<path fill="none" stroke="black" d="M877.365,-705.5C877.365,-705.5 1172.63,-705.5 1172.63,-705.5 1178.63,-705.5 1184.63,-711.5 1184.63,-717.5 1184.63,-717.5 1184.63,-905.5 1184.63,-905.5 1184.63,-911.5 1178.63,-917.5 1172.63,-917.5 1172.63,-917.5 877.365,-917.5 877.365,-917.5 871.365,-917.5 865.365,-911.5 865.365,-905.5 865.365,-905.5 865.365,-717.5 865.365,-717.5 865.365,-711.5 871.365,-705.5 877.365,-705.5"/>
<text text-anchor="middle" x="1025" y="-902.3" font-family="Times,serif" font-size="14.00">User</text>
<polyline fill="none" stroke="black" points="865.365,-895.5 1184.63,-895.5 "/>
<text text-anchor="start" x="873.365" y="-880.3" font-family="Times,serif" font-size="14.00">updated_at :timestamp without time zone</text>
<text text-anchor="start" x="873.365" y="-866.3" font-family="Times,serif" font-size="14.00">email :character varying</text>
<text text-anchor="start" x="873.365" y="-852.3" font-family="Times,serif" font-size="14.00">encrypted_password :character varying</text>
<text text-anchor="start" x="873.365" y="-838.3" font-family="Times,serif" font-size="14.00">reset_password_token :character varying</text>
<text text-anchor="start" x="873.365" y="-824.3" font-family="Times,serif" font-size="14.00">reset_password_sent_at :timestamp without time zone</text>
<text text-anchor="start" x="873.365" y="-810.3" font-family="Times,serif" font-size="14.00">remember_created_at :timestamp without time zone</text>
<text text-anchor="start" x="873.365" y="-796.3" font-family="Times,serif" font-size="14.00">sign_in_count :integer</text>
<text text-anchor="start" x="873.365" y="-782.3" font-family="Times,serif" font-size="14.00">current_sign_in_at :timestamp without time zone</text>
<text text-anchor="start" x="873.365" y="-768.3" font-family="Times,serif" font-size="14.00">last_sign_in_at :timestamp without time zone</text>
<text text-anchor="start" x="873.365" y="-754.3" font-family="Times,serif" font-size="14.00">current_sign_in_ip :inet</text>
<text text-anchor="start" x="873.365" y="-740.3" font-family="Times,serif" font-size="14.00">last_sign_in_ip :inet</text>
<text text-anchor="start" x="873.365" y="-726.3" font-family="Times,serif" font-size="14.00">created_at :timestamp without time zone</text>
<text text-anchor="start" x="873.365" y="-712.3" font-family="Times,serif" font-size="14.00">id :integer</text>
</g>
<!-- MadeRecipe&#45;&gt;User -->
<g id="edge4" class="edge"><title>MadeRecipe&#45;&gt;User</title>
<path fill="none" stroke="#97b03e" d="M687.457,-960.501C691.551,-951.122 697.237,-942.392 705.131,-936 730.515,-915.447 820.143,-928.705 851,-918 853.229,-917.227 855.461,-916.422 857.693,-915.588"/>
<ellipse fill="none" stroke="#97b03e" cx="685.948" cy="-964.399" rx="4.00001" ry="4.00001"/>
<ellipse fill="#97b03e" stroke="#97b03e" cx="861.553" cy="-914.089" rx="4.00001" ry="4.00001"/>
<text text-anchor="middle" x="742.935" y="-938.8" font-family="Times,serif" font-size="14.00">original_user</text>
</g>
<!-- MadeRecipe&#45;&gt;User -->
<g id="edge7" class="edge"><title>MadeRecipe&#45;&gt;User</title>
<path fill="none" stroke="#f5fc5e" d="M759.376,-962.855C779.52,-949.7 796.841,-938.644 802.11,-936 822.806,-925.615 830.14,-928.049 851,-918 852.586,-917.236 854.177,-916.461 855.771,-915.677"/>
<polygon fill="#f5fc5e" stroke="#f5fc5e" points="759.28,-962.918 748.449,-964.631 755.097,-965.657 750.914,-968.396 750.914,-968.396 750.914,-968.396 755.097,-965.657 753.379,-972.161 759.28,-962.918 759.28,-962.918"/>
<polygon fill="#f5fc5e" stroke="#f5fc5e" points="855.991,-915.567 866.948,-915.111 860.462,-913.327 864.932,-911.088 864.932,-911.088 864.932,-911.088 860.462,-913.327 862.917,-907.064 855.991,-915.567 855.991,-915.567"/>
<text text-anchor="middle" x="839.945" y="-938.8" font-family="Times,serif" font-size="14.00">subscriptions</text>
</g>
<!-- Tag -->
<g id="node14" class="node"><title>Tag</title>
<path fill="none" stroke="black" d="M218.138,-152.5C218.138,-152.5 441.862,-152.5 441.862,-152.5 447.862,-152.5 453.862,-158.5 453.862,-164.5 453.862,-164.5 453.862,-226.5 453.862,-226.5 453.862,-232.5 447.862,-238.5 441.862,-238.5 441.862,-238.5 218.138,-238.5 218.138,-238.5 212.138,-238.5 206.138,-232.5 206.138,-226.5 206.138,-226.5 206.138,-164.5 206.138,-164.5 206.138,-158.5 212.138,-152.5 218.138,-152.5"/>
<text text-anchor="middle" x="330" y="-223.3" font-family="Times,serif" font-size="14.00">Tag</text>
<polyline fill="none" stroke="black" points="206.138,-216.5 453.862,-216.5 "/>
<text text-anchor="start" x="214.138" y="-201.3" font-family="Times,serif" font-size="14.00">id :integer</text>
<text text-anchor="start" x="214.138" y="-187.3" font-family="Times,serif" font-size="14.00">name :character varying</text>
<text text-anchor="start" x="214.138" y="-173.3" font-family="Times,serif" font-size="14.00">created_at :timestamp without time zone</text>
<text text-anchor="start" x="214.138" y="-159.3" font-family="Times,serif" font-size="14.00">updated_at :timestamp without time zone</text>
</g>
<!-- Profile&#45;&gt;Tag -->
<g id="edge10" class="edge"><title>Profile&#45;&gt;Tag</title>
<path fill="none" stroke="#c97071" d="M369.456,-267.3C365.678,-260.52 362,-253.921 358.506,-247.652"/>
<polygon fill="#c97071" stroke="#c97071" points="369.58,-267.522 370.517,-278.448 372.014,-271.89 374.448,-276.257 374.448,-276.257 374.448,-276.257 372.014,-271.89 378.379,-274.067 369.58,-267.522 369.58,-267.522"/>
<polygon fill="#c97071" stroke="#c97071" points="358.396,-247.454 357.459,-236.528 355.962,-243.086 353.528,-238.719 353.528,-238.719 353.528,-238.719 355.962,-243.086 349.597,-240.909 358.396,-247.454 358.396,-247.454"/>
</g>
<!-- Tagging -->
<g id="node15" class="node"><title>Tagging</title>
<path fill="none" stroke="black" d="M370.138,-0.5C370.138,-0.5 593.862,-0.5 593.862,-0.5 599.862,-0.5 605.862,-6.5 605.862,-12.5 605.862,-12.5 605.862,-102.5 605.862,-102.5 605.862,-108.5 599.862,-114.5 593.862,-114.5 593.862,-114.5 370.138,-114.5 370.138,-114.5 364.138,-114.5 358.138,-108.5 358.138,-102.5 358.138,-102.5 358.138,-12.5 358.138,-12.5 358.138,-6.5 364.138,-0.5 370.138,-0.5"/>
<text text-anchor="middle" x="482" y="-99.3" font-family="Times,serif" font-size="14.00">Tagging</text>
<polyline fill="none" stroke="black" points="358.138,-92.5 605.862,-92.5 "/>
<text text-anchor="start" x="366.138" y="-77.3" font-family="Times,serif" font-size="14.00">id :integer</text>
<text text-anchor="start" x="366.138" y="-63.3" font-family="Times,serif" font-size="14.00">tag_id :integer</text>
<text text-anchor="start" x="366.138" y="-49.3" font-family="Times,serif" font-size="14.00">taggable_id :integer</text>
<text text-anchor="start" x="366.138" y="-35.3" font-family="Times,serif" font-size="14.00">taggable_type :character varying</text>
<text text-anchor="start" x="366.138" y="-21.3" font-family="Times,serif" font-size="14.00">created_at :timestamp without time zone</text>
<text text-anchor="start" x="366.138" y="-7.3" font-family="Times,serif" font-size="14.00">updated_at :timestamp without time zone</text>
</g>
<!-- Profile&#45;&gt;Tagging -->
<g id="edge9" class="edge"><title>Profile&#45;&gt;Tagging</title>
<path fill="none" stroke="#76dd59" d="M458.612,-268.411C460.179,-258.474 461.665,-248.574 463,-239 468.245,-201.385 472.762,-159.177 476.075,-125.04"/>
<ellipse fill="none" stroke="#76dd59" cx="457.97" cy="-272.432" rx="4.00001" ry="4.00001"/>
<polygon fill="#76dd59" stroke="#76dd59" points="476.11,-124.674 481.544,-115.148 476.587,-119.696 477.064,-114.719 477.064,-114.719 477.064,-114.719 476.587,-119.696 472.585,-114.29 476.11,-124.674 476.11,-124.674"/>
</g>
<!-- Rating -->
<g id="node8" class="node"><title>Rating</title>
<path fill="none" stroke="black" d="M1338.14,-540.5C1338.14,-540.5 1561.86,-540.5 1561.86,-540.5 1567.86,-540.5 1573.86,-546.5 1573.86,-552.5 1573.86,-552.5 1573.86,-642.5 1573.86,-642.5 1573.86,-648.5 1567.86,-654.5 1561.86,-654.5 1561.86,-654.5 1338.14,-654.5 1338.14,-654.5 1332.14,-654.5 1326.14,-648.5 1326.14,-642.5 1326.14,-642.5 1326.14,-552.5 1326.14,-552.5 1326.14,-546.5 1332.14,-540.5 1338.14,-540.5"/>
<text text-anchor="middle" x="1450" y="-639.3" font-family="Times,serif" font-size="14.00">Rating</text>
<polyline fill="none" stroke="black" points="1326.14,-632.5 1573.86,-632.5 "/>
<text text-anchor="start" x="1334.14" y="-617.3" font-family="Times,serif" font-size="14.00">id :integer</text>
<text text-anchor="start" x="1334.14" y="-603.3" font-family="Times,serif" font-size="14.00">rating :integer</text>
<text text-anchor="start" x="1334.14" y="-589.3" font-family="Times,serif" font-size="14.00">user_id :integer</text>
<text text-anchor="start" x="1334.14" y="-575.3" font-family="Times,serif" font-size="14.00">recipe_id :integer</text>
<text text-anchor="start" x="1334.14" y="-561.3" font-family="Times,serif" font-size="14.00">created_at :timestamp without time zone</text>
<text text-anchor="start" x="1334.14" y="-547.3" font-family="Times,serif" font-size="14.00">updated_at :timestamp without time zone</text>
</g>
<!-- Recipe&#45;&gt;Comment -->
<g id="edge18" class="edge"><title>Recipe&#45;&gt;Comment</title>
<path fill="none" stroke="#041970" d="M886.095,-1119.37C885.73,-1119.25 885.365,-1119.12 885,-1119 763.878,-1078.18 412.48,-1148 312,-1069 191.269,-974.079 201.205,-770.473 215.974,-664.956"/>
<ellipse fill="none" stroke="#041970" cx="889.991" cy="-1120.81" rx="4.00001" ry="4.00001"/>
<polygon fill="#041970" stroke="#041970" points="216.019,-664.644 221.914,-655.397 216.74,-659.696 217.461,-654.749 217.461,-654.749 217.461,-654.749 216.74,-659.696 213.008,-654.1 216.019,-664.644 216.019,-664.644"/>
</g>
<!-- Recipe&#45;&gt;Ingredient -->
<g id="edge13" class="edge"><title>Recipe&#45;&gt;Ingredient</title>
<path fill="none" stroke="#653f8c" d="M1151.46,-1152.26C1183.89,-1139.81 1218.8,-1127.78 1252,-1119 1305.84,-1104.77 1321.69,-1113.3 1376,-1101 1419.83,-1091.07 1432.13,-1085.24 1478.16,-1069.29"/>
<polygon fill="#653f8c" stroke="#653f8c" points="1151.25,-1152.34 1140.3,-1151.77 1146.59,-1154.15 1141.93,-1155.96 1141.93,-1155.96 1141.93,-1155.96 1146.59,-1154.15 1143.56,-1160.16 1151.25,-1152.34 1151.25,-1152.34"/>
<polygon fill="#653f8c" stroke="#653f8c" points="1478.38,-1069.21 1489.3,-1070.21 1483.1,-1067.59 1487.83,-1065.96 1487.83,-1065.96 1487.83,-1065.96 1483.1,-1067.59 1486.37,-1061.7 1478.38,-1069.21 1478.38,-1069.21"/>
</g>
<!-- Recipe&#45;&gt;MadeRecipe -->
<g id="edge20" class="edge"><title>Recipe&#45;&gt;MadeRecipe</title>
<path fill="none" stroke="#bae2e6" d="M886.989,-1120.16C886.325,-1119.77 885.662,-1119.39 885,-1119 869.2,-1109.79 864.401,-1109.09 848,-1101 835.522,-1094.85 832.514,-1093.08 820,-1087 810.548,-1082.41 800.724,-1077.68 790.853,-1072.96"/>
<ellipse fill="none" stroke="#bae2e6" cx="890.699" cy="-1122.37" rx="4.00002" ry="4.00002"/>
<polygon fill="#bae2e6" stroke="#bae2e6" points="790.807,-1072.93 783.721,-1064.57 786.295,-1070.78 781.783,-1068.63 781.783,-1068.63 781.783,-1068.63 786.295,-1070.78 779.844,-1072.69 790.807,-1072.93 790.807,-1072.93"/>
</g>
<!-- Recipe&#45;&gt;Photo -->
<g id="edge15" class="edge"><title>Recipe&#45;&gt;Photo</title>
<path fill="none" stroke="#0ee466" d="M886.423,-1119.51C885.949,-1119.34 885.474,-1119.17 885,-1119 740.72,-1067.56 659.657,-1169.43 544,-1069 494.252,-1025.8 467.132,-955.708 452.654,-899.702"/>
<ellipse fill="none" stroke="#0ee466" cx="890.362" cy="-1121.05" rx="4.00001" ry="4.00001"/>
<polygon fill="#0ee466" stroke="#0ee466" points="452.599,-899.479 454.548,-888.688 451.39,-894.627 450.181,-889.775 450.181,-889.775 450.181,-889.775 451.39,-894.627 445.815,-890.863 452.599,-899.479 452.599,-899.479"/>
</g>
<!-- Recipe&#45;&gt;Profile -->
<g id="edge11" class="edge"><title>Recipe&#45;&gt;Profile</title>
<path fill="none" stroke="#c3bd0e" d="M886.098,-1119.37C885.732,-1119.24 885.366,-1119.12 885,-1119 770.315,-1081.27 461.421,-1118.75 342,-1101 203.637,-1080.44 38,-1159.38 38,-1019.5 38,-1019.5 38,-1019.5 38,-596.5 38,-480.971 171.706,-430.166 284.318,-407.864"/>
<ellipse fill="none" stroke="#c3bd0e" cx="890.001" cy="-1120.78" rx="4.00001" ry="4.00001"/>
<ellipse fill="#c3bd0e" stroke="#c3bd0e" cx="288.46" cy="-407.065" rx="4.00001" ry="4.00001"/>
</g>
<!-- Recipe&#45;&gt;Rating -->
<g id="edge22" class="edge"><title>Recipe&#45;&gt;Rating</title>
<path fill="none" stroke="#741e9f" d="M1149.89,-1169.11C1202.28,-1146.82 1259.19,-1114.36 1298,-1069 1350.88,-1007.19 1408.78,-779.01 1435.27,-664.686"/>
<ellipse fill="none" stroke="#741e9f" cx="1145.89" cy="-1170.78" rx="4.00001" ry="4.00001"/>
<polygon fill="#741e9f" stroke="#741e9f" points="1435.34,-664.398 1441.97,-655.664 1436.46,-659.526 1437.59,-654.654 1437.59,-654.654 1437.59,-654.654 1436.46,-659.526 1433.2,-653.643 1435.34,-664.398 1435.34,-664.398"/>
</g>
<!-- Recipe&#45;&gt;Recipe -->
<g id="edge24" class="edge"><title>Recipe&#45;&gt;Recipe</title>
<path fill="none" stroke="#ba74f5" d="M1149.44,-1225.53C1156,-1222.04 1159.86,-1217.36 1159.86,-1211.5 1159.86,-1206.25 1156.76,-1201.95 1151.4,-1198.6"/>
<ellipse fill="none" stroke="#ba74f5" cx="1145.72" cy="-1227.09" rx="4.00002" ry="4.00002"/>
<polygon fill="#ba74f5" stroke="#ba74f5" points="1151.14,-1198.48 1143.88,-1190.27 1146.59,-1196.43 1142.03,-1194.37 1142.03,-1194.37 1142.03,-1194.37 1146.59,-1196.43 1140.18,-1198.47 1151.14,-1198.48 1151.14,-1198.48"/>
<text text-anchor="middle" x="1201.45" y="-1207.3" font-family="Times,serif" font-size="14.00">forked_recipes</text>
</g>
<!-- Recipe&#45;&gt;RecipeIngredient -->
<g id="edge12" class="edge"><title>Recipe&#45;&gt;RecipeIngredient</title>
<path fill="none" stroke="#cc96b1" d="M1149.9,-1150.8C1182.66,-1138.26 1218.1,-1126.55 1252,-1119 1334.49,-1100.62 1953.24,-1130.69 2011,-1069 2061.45,-1015.12 2009.96,-938.438 1957.06,-882.967"/>
<ellipse fill="none" stroke="#cc96b1" cx="1145.81" cy="-1152.39" rx="4.00001" ry="4.00001"/>
<polygon fill="#cc96b1" stroke="#cc96b1" points="1956.9,-882.802 1953.16,-872.493 1953.41,-879.215 1949.93,-875.627 1949.93,-875.627 1949.93,-875.627 1953.41,-879.215 1946.7,-878.762 1956.9,-882.802 1956.9,-882.802"/>
</g>
<!-- SavedRecipe -->
<g id="node12" class="node"><title>SavedRecipe</title>
<path fill="none" stroke="black" d="M382.138,-547.5C382.138,-547.5 605.862,-547.5 605.862,-547.5 611.862,-547.5 617.862,-553.5 617.862,-559.5 617.862,-559.5 617.862,-635.5 617.862,-635.5 617.862,-641.5 611.862,-647.5 605.862,-647.5 605.862,-647.5 382.138,-647.5 382.138,-647.5 376.138,-647.5 370.138,-641.5 370.138,-635.5 370.138,-635.5 370.138,-559.5 370.138,-559.5 370.138,-553.5 376.138,-547.5 382.138,-547.5"/>
<text text-anchor="middle" x="494" y="-632.3" font-family="Times,serif" font-size="14.00">SavedRecipe</text>
<polyline fill="none" stroke="black" points="370.138,-625.5 617.862,-625.5 "/>
<text text-anchor="start" x="378.138" y="-610.3" font-family="Times,serif" font-size="14.00">id :integer</text>
<text text-anchor="start" x="378.138" y="-596.3" font-family="Times,serif" font-size="14.00">user_id :integer</text>
<text text-anchor="start" x="378.138" y="-582.3" font-family="Times,serif" font-size="14.00">recipe_id :integer</text>
<text text-anchor="start" x="378.138" y="-568.3" font-family="Times,serif" font-size="14.00">created_at :timestamp without time zone</text>
<text text-anchor="start" x="378.138" y="-554.3" font-family="Times,serif" font-size="14.00">updated_at :timestamp without time zone</text>
</g>
<!-- Recipe&#45;&gt;SavedRecipe -->
<g id="edge21" class="edge"><title>Recipe&#45;&gt;SavedRecipe</title>
<path fill="none" stroke="#7a472c" d="M886.429,-1119.5C885.953,-1119.33 885.477,-1119.16 885,-1119 818.03,-1096.09 636.475,-1114.53 567,-1101 523.682,-1092.56 511.679,-1090.25 473,-1069 379.073,-1017.39 331.331,-1014.64 285,-918 244.074,-832.637 235.538,-785.717 285,-705 290.997,-695.214 332.242,-673.394 376.527,-652.037"/>
<ellipse fill="none" stroke="#7a472c" cx="890.383" cy="-1120.98" rx="4.00001" ry="4.00001"/>
<polygon fill="#7a472c" stroke="#7a472c" points="376.696,-651.956 387.658,-651.691 381.205,-649.795 385.713,-647.633 385.713,-647.633 385.713,-647.633 381.205,-649.795 383.768,-643.575 376.696,-651.956 376.696,-651.956"/>
</g>
<!-- Recipe&#45;&gt;Tag -->
<g id="edge17" class="edge"><title>Recipe&#45;&gt;Tag</title>
<path fill="none" stroke="#59cf62" d="M883.984,-1119.56C760.689,-1093.65 146.075,-1136.39 65,-1101 22.5381,-1082.46 0,-1065.83 0,-1019.5 0,-1019.5 0,-1019.5 0,-388.5 0,-293.05 104.418,-244.231 195.782,-219.784"/>
<polygon fill="#59cf62" stroke="#59cf62" points="884.097,-1119.59 892.648,-1126.45 888.937,-1120.84 893.777,-1122.09 893.777,-1122.09 893.777,-1122.09 888.937,-1120.84 894.906,-1117.74 884.097,-1119.59 884.097,-1119.59"/>
<polygon fill="#59cf62" stroke="#59cf62" points="196.032,-219.72 206.842,-221.564 200.872,-218.464 205.711,-217.208 205.711,-217.208 205.711,-217.208 200.872,-218.464 204.581,-212.852 196.032,-219.72 196.032,-219.72"/>
</g>
<!-- Recipe&#45;&gt;Tagging -->
<g id="edge16" class="edge"><title>Recipe&#45;&gt;Tagging</title>
<path fill="none" stroke="#515630" d="M1149.69,-1149.8C1182.45,-1137.29 1217.95,-1125.85 1252,-1119 1412.61,-1086.68 1828.43,-1133.51 1989,-1101 2085.91,-1081.38 2196,-1118.37 2196,-1019.5 2196,-1019.5 2196,-1019.5 2196,-194.5 2196,-115.379 1020.03,-74.022 616.223,-62.1533"/>
<ellipse fill="none" stroke="#515630" cx="1145.6" cy="-1151.39" rx="4.00001" ry="4.00001"/>
<polygon fill="#515630" stroke="#515630" points="615.952,-62.1455 606.088,-57.3549 610.954,-61.9992 605.956,-61.853 605.956,-61.853 605.956,-61.853 610.954,-61.9992 605.825,-66.3511 615.952,-62.1455 615.952,-62.1455"/>
</g>
<!-- Unit -->
<g id="node16" class="node"><title>Unit</title>
<path fill="none" stroke="black" d="M1766.14,-975.5C1766.14,-975.5 1989.86,-975.5 1989.86,-975.5 1995.86,-975.5 2001.86,-981.5 2001.86,-987.5 2001.86,-987.5 2001.86,-1049.5 2001.86,-1049.5 2001.86,-1055.5 1995.86,-1061.5 1989.86,-1061.5 1989.86,-1061.5 1766.14,-1061.5 1766.14,-1061.5 1760.14,-1061.5 1754.14,-1055.5 1754.14,-1049.5 1754.14,-1049.5 1754.14,-987.5 1754.14,-987.5 1754.14,-981.5 1760.14,-975.5 1766.14,-975.5"/>
<text text-anchor="middle" x="1878" y="-1046.3" font-family="Times,serif" font-size="14.00">Unit</text>
<polyline fill="none" stroke="black" points="1754.14,-1039.5 2001.86,-1039.5 "/>
<text text-anchor="start" x="1762.14" y="-1024.3" font-family="Times,serif" font-size="14.00">id :integer</text>
<text text-anchor="start" x="1762.14" y="-1010.3" font-family="Times,serif" font-size="14.00">unit_type :character varying</text>
<text text-anchor="start" x="1762.14" y="-996.3" font-family="Times,serif" font-size="14.00">created_at :timestamp without time zone</text>
<text text-anchor="start" x="1762.14" y="-982.3" font-family="Times,serif" font-size="14.00">updated_at :timestamp without time zone</text>
</g>
<!-- Recipe&#45;&gt;Unit -->
<g id="edge14" class="edge"><title>Recipe&#45;&gt;Unit</title>
<path fill="none" stroke="#8d2a3a" d="M1151.48,-1151.13C1183.84,-1138.75 1218.71,-1127.04 1252,-1119 1305.52,-1106.08 1691.37,-1081.48 1745,-1069 1750.76,-1067.66 1756.62,-1066.13 1762.49,-1064.47"/>
<polygon fill="#8d2a3a" stroke="#8d2a3a" points="1151.3,-1151.2 1140.35,-1150.61 1146.64,-1153 1141.97,-1154.81 1141.97,-1154.81 1141.97,-1154.81 1146.64,-1153 1143.6,-1159 1151.3,-1151.2 1151.3,-1151.2"/>
<polygon fill="#8d2a3a" stroke="#8d2a3a" points="1762.8,-1064.38 1773.67,-1065.86 1767.6,-1062.96 1772.39,-1061.55 1772.39,-1061.55 1772.39,-1061.55 1767.6,-1062.96 1771.12,-1057.23 1762.8,-1064.38 1762.8,-1064.38"/>
</g>
<!-- Recipe&#45;&gt;User -->
<g id="edge19" class="edge"><title>Recipe&#45;&gt;User</title>
<path fill="none" stroke="#15d086" d="M1150.21,-1140.39C1175.11,-1120.77 1197.77,-1097 1212,-1069 1232.34,-1028.98 1231.06,-1008.64 1212,-968 1204.88,-952.821 1195.47,-938.61 1184.65,-925.431"/>
<polygon fill="#15d086" stroke="#15d086" points="1150.01,-1140.54 1139.33,-1143.03 1146.03,-1143.58 1142.06,-1146.61 1142.06,-1146.61 1142.06,-1146.61 1146.03,-1143.58 1144.79,-1150.19 1150.01,-1140.54 1150.01,-1140.54"/>
<polygon fill="#15d086" stroke="#15d086" points="1184.62,-925.395 1181.55,-914.869 1181.37,-921.593 1178.13,-917.792 1178.13,-917.792 1178.13,-917.792 1181.37,-921.593 1174.71,-920.714 1184.62,-925.395 1184.62,-925.395"/>
<text text-anchor="middle" x="1260.21" y="-1014.3" font-family="Times,serif" font-size="14.00">commenters</text>
</g>
<!-- UsersRated -->
<g id="node18" class="node"><title>UsersRated</title>
<ellipse fill="none" stroke="black" cx="1419" cy="-1018.5" rx="50.7483" ry="18"/>
<text text-anchor="middle" x="1419" y="-1014.3" font-family="Times,serif" font-size="14.00">UsersRated</text>
</g>
<!-- Recipe&#45;&gt;UsersRated -->
<g id="edge23" class="edge"><title>Recipe&#45;&gt;UsersRated</title>
<path fill="none" stroke="#f4f2d4" d="M1151.66,-1152.99C1184.08,-1140.51 1218.94,-1128.28 1252,-1119 1296.32,-1106.56 1314.42,-1124.51 1354,-1101 1376.36,-1087.71 1394.1,-1063.66 1405.36,-1045.11"/>
<polygon fill="#f4f2d4" stroke="#f4f2d4" points="1151.45,-1153.07 1140.5,-1152.5 1146.79,-1154.88 1142.13,-1156.69 1142.13,-1156.69 1142.13,-1156.69 1146.79,-1154.88 1143.76,-1160.89 1151.45,-1153.07 1151.45,-1153.07"/>
<polygon fill="#f4f2d4" stroke="#f4f2d4" points="1405.48,-1044.91 1414.4,-1038.53 1407.99,-1040.59 1410.5,-1036.26 1410.5,-1036.26 1410.5,-1036.26 1407.99,-1040.59 1406.61,-1034 1405.48,-1044.91 1405.48,-1044.91"/>
</g>
<!-- RecipeScraper -->
<g id="node11" class="node"><title>RecipeScraper</title>
<polygon fill="none" stroke="black" points="1261.19,-1189.5 1261.19,-1233.5 1358.81,-1233.5 1358.81,-1189.5 1261.19,-1189.5"/>
<text text-anchor="middle" x="1310" y="-1218.3" font-family="Times,serif" font-size="14.00">RecipeScraper</text>
<polyline fill="none" stroke="black" points="1261.19,-1211.5 1358.81,-1211.5 "/>
<text text-anchor="middle" x="1310" y="-1196.3" font-family="Times,serif" font-size="14.00"> </text>
</g>
<!-- Subscription -->
<g id="node13" class="node"><title>Subscription</title>
<path fill="none" stroke="black" d="M902.138,-547.5C902.138,-547.5 1125.86,-547.5 1125.86,-547.5 1131.86,-547.5 1137.86,-553.5 1137.86,-559.5 1137.86,-559.5 1137.86,-635.5 1137.86,-635.5 1137.86,-641.5 1131.86,-647.5 1125.86,-647.5 1125.86,-647.5 902.138,-647.5 902.138,-647.5 896.138,-647.5 890.138,-641.5 890.138,-635.5 890.138,-635.5 890.138,-559.5 890.138,-559.5 890.138,-553.5 896.138,-547.5 902.138,-547.5"/>
<text text-anchor="middle" x="1014" y="-632.3" font-family="Times,serif" font-size="14.00">Subscription</text>
<polyline fill="none" stroke="black" points="890.138,-625.5 1137.86,-625.5 "/>
<text text-anchor="start" x="898.138" y="-610.3" font-family="Times,serif" font-size="14.00">id :integer</text>
<text text-anchor="start" x="898.138" y="-596.3" font-family="Times,serif" font-size="14.00">subscriber_id :integer</text>
<text text-anchor="start" x="898.138" y="-582.3" font-family="Times,serif" font-size="14.00">subscribed_id :integer</text>
<text text-anchor="start" x="898.138" y="-568.3" font-family="Times,serif" font-size="14.00">created_at :timestamp without time zone</text>
<text text-anchor="start" x="898.138" y="-554.3" font-family="Times,serif" font-size="14.00">updated_at :timestamp without time zone</text>
</g>
<!-- Subscription&#45;&gt;MadeRecipe -->
<g id="edge27" class="edge"><title>Subscription&#45;&gt;MadeRecipe</title>
<path fill="none" stroke="#a478ad" d="M880.369,-642.998C795.806,-671.302 702.065,-703.011 700.523,-705 670.983,-743.124 671.077,-878.321 673.926,-957.853"/>
<polygon fill="#a478ad" stroke="#a478ad" points="880.616,-642.916 891.527,-644.01 885.358,-641.329 890.1,-639.743 890.1,-639.743 890.1,-639.743 885.358,-641.329 888.672,-635.475 880.616,-642.916 880.616,-642.916"/>
<polygon fill="#a478ad" stroke="#a478ad" points="673.94,-958.223 669.828,-968.388 674.132,-963.219 674.324,-968.216 674.324,-968.216 674.324,-968.216 674.132,-963.219 678.821,-968.043 673.94,-958.223 673.94,-958.223"/>
<text text-anchor="middle" x="778.738" y="-807.3" font-family="Times,serif" font-size="14.00">made_recipes_by_receivers</text>
</g>
<!-- Subscription&#45;&gt;Profile -->
<g id="edge25" class="edge"><title>Subscription&#45;&gt;Profile</title>
<path fill="none" stroke="#c12110" d="M923.943,-543.7C908.237,-535.517 891.849,-527.604 876,-521 783.296,-482.375 675.204,-450.096 589.476,-427.304"/>
<ellipse fill="none" stroke="#c12110" cx="927.568" cy="-545.609" rx="4.00002" ry="4.00002"/>
<ellipse fill="#c12110" stroke="#c12110" cx="585.38" cy="-426.22" rx="4.00001" ry="4.00001"/>
</g>
<!-- Subscription&#45;&gt;Recipe -->
<g id="edge26" class="edge"><title>Subscription&#45;&gt;Recipe</title>
<path fill="none" stroke="#a0885e" d="M1148.11,-626.862C1200.58,-637.077 1261.41,-647.837 1317,-655 1393.68,-664.879 1955.81,-650.857 2011,-705 2056.67,-749.81 2059.37,-1035.72 2035,-1069 2007.18,-1106.99 1980.44,-1093.19 1934,-1101 1784.49,-1126.14 1400.6,-1088.94 1252,-1119 1218.53,-1125.77 1183.66,-1136.95 1151.36,-1149.22"/>
<polygon fill="#a0885e" stroke="#a0885e" points="1147.88,-626.818 1138.94,-620.479 1142.98,-625.856 1138.07,-624.895 1138.07,-624.895 1138.07,-624.895 1142.98,-625.856 1137.2,-629.311 1147.88,-626.818 1147.88,-626.818"/>
<polygon fill="#a0885e" stroke="#a0885e" points="1151.21,-1149.28 1140.26,-1148.68 1146.54,-1151.08 1141.88,-1152.88 1141.88,-1152.88 1141.88,-1152.88 1146.54,-1151.08 1143.5,-1157.08 1151.21,-1149.28 1151.21,-1149.28"/>
<text text-anchor="middle" x="2109.08" y="-938.8" font-family="Times,serif" font-size="14.00">recipes_by_receivers</text>
</g>
<!-- Subscription&#45;&gt;Subscription -->
<g id="edge28" class="edge"><title>Subscription&#45;&gt;Subscription</title>
<path fill="none" stroke="#6de1c7" d="M1147.77,-605.799C1152.9,-603.627 1155.86,-600.861 1155.86,-597.5 1155.86,-594.139 1152.9,-591.373 1147.77,-589.201"/>
<polygon fill="#6de1c7" stroke="#6de1c7" points="1147.61,-605.848 1136.73,-604.412 1142.82,-607.285 1138.03,-608.722 1138.03,-608.722 1138.03,-608.722 1142.82,-607.285 1139.32,-613.033 1147.61,-605.848 1147.61,-605.848"/>
<polygon fill="#6de1c7" stroke="#6de1c7" points="1147.61,-589.152 1139.32,-581.967 1142.82,-587.715 1138.03,-586.278 1138.03,-586.278 1138.03,-586.278 1142.82,-587.715 1136.73,-590.588 1147.61,-589.152 1147.61,-589.152"/>
<text text-anchor="middle" x="1232.07" y="-593.3" font-family="Times,serif" font-size="14.00">subscriptions_by_receivers</text>
</g>
<!-- Tag&#45;&gt;Tagging -->
<g id="edge29" class="edge"><title>Tag&#45;&gt;Tagging</title>
<path fill="none" stroke="#803740" d="M383.283,-146.826C392.489,-138.589 402.184,-129.914 411.757,-121.349"/>
<ellipse fill="none" stroke="#803740" cx="380.242" cy="-149.547" rx="4.00002" ry="4.00002"/>
<polygon fill="#803740" stroke="#803740" points="411.944,-121.182 422.397,-117.868 415.67,-117.848 419.396,-114.514 419.396,-114.514 419.396,-114.514 415.67,-117.848 416.395,-111.161 411.944,-121.182 411.944,-121.182"/>
</g>
<!-- Unit&#45;&gt;RecipeIngredient -->
<g id="edge30" class="edge"><title>Unit&#45;&gt;RecipeIngredient</title>
<path fill="none" stroke="#b57ed9" d="M1878,-966.7C1878,-942.258 1878,-912.504 1878,-885.677"/>
<ellipse fill="none" stroke="#b57ed9" cx="1878" cy="-971.024" rx="4" ry="4"/>
<polygon fill="#b57ed9" stroke="#b57ed9" points="1878,-885.555 1882.5,-875.555 1878,-880.555 1878,-875.555 1878,-875.555 1878,-875.555 1878,-880.555 1873.5,-875.555 1878,-885.555 1878,-885.555"/>
</g>
<!-- User&#45;&gt;Comment -->
<g id="edge32" class="edge"><title>User&#45;&gt;Comment</title>
<path fill="none" stroke="#2621cf" d="M857.716,-707.345C855.477,-706.532 853.237,-705.75 851,-705 801.39,-688.374 447.206,-670.295 362.169,-654.726"/>
<ellipse fill="none" stroke="#2621cf" cx="861.586" cy="-708.809" rx="4.00001" ry="4.00001"/>
<polygon fill="#2621cf" stroke="#2621cf" points="361.984,-654.687 353.146,-648.195 357.094,-653.641 352.205,-652.596 352.205,-652.596 352.205,-652.596 357.094,-653.641 351.264,-656.996 361.984,-654.687 361.984,-654.687"/>
</g>
<!-- User&#45;&gt;MadeRecipe -->
<g id="edge38" class="edge"><title>User&#45;&gt;MadeRecipe</title>
<path fill="none" stroke="#35bb2d" d="M914.96,-923.031C902.368,-932.895 889.271,-942.114 876,-950 855.83,-961.985 833.235,-972.209 810.706,-980.799"/>
<ellipse fill="none" stroke="#35bb2d" cx="918.371" cy="-920.311" rx="4.00002" ry="4.00002"/>
<polygon fill="#35bb2d" stroke="#35bb2d" points="810.436,-980.899 799.495,-980.163 805.749,-982.64 801.062,-984.381 801.062,-984.381 801.062,-984.381 805.749,-982.64 802.629,-988.6 810.436,-980.899 810.436,-980.899"/>
</g>
<!-- User&#45;&gt;Profile -->
<g id="edge33" class="edge"><title>User&#45;&gt;Profile</title>
<path fill="none" stroke="#6a8055" d="M911.538,-698.815C900.319,-684.723 889.837,-669.977 881,-655 853.645,-608.64 880.417,-578.699 843,-540 776.041,-470.747 674.279,-433.362 589.388,-413.294"/>
<ellipse fill="none" stroke="#6a8055" cx="914.224" cy="-702.132" rx="4.00002" ry="4.00002"/>
<ellipse fill="#6a8055" stroke="#6a8055" cx="585.385" cy="-412.368" rx="4.00001" ry="4.00001"/>
</g>
<!-- User&#45;&gt;Rating -->
<g id="edge42" class="edge"><title>User&#45;&gt;Rating</title>
<path fill="none" stroke="#5c51f3" d="M1192.24,-738.113C1227.49,-721.948 1264.22,-704.415 1298,-687 1314.53,-678.48 1331.79,-669.006 1348.5,-659.515"/>
<ellipse fill="none" stroke="#5c51f3" cx="1188.38" cy="-739.878" rx="4.00002" ry="4.00002"/>
<polygon fill="#5c51f3" stroke="#5c51f3" points="1348.5,-659.514 1359.42,-658.462 1352.84,-657.035 1357.19,-654.555 1357.19,-654.555 1357.19,-654.555 1352.84,-657.035 1354.95,-650.647 1348.5,-659.514 1348.5,-659.514"/>
</g>
<!-- User&#45;&gt;Recipe -->
<g id="edge31" class="edge"><title>User&#45;&gt;Recipe</title>
<path fill="none" stroke="#e7a303" d="M924.04,-923.918C915.926,-932.762 907.839,-941.54 900,-950 892.521,-958.071 887.065,-957.775 883,-968 881.18,-972.577 868.852,-1065.05 891,-1101 893.129,-1104.46 895.404,-1107.86 897.801,-1111.21"/>
<ellipse fill="none" stroke="#e7a303" cx="926.955" cy="-920.738" rx="4.00002" ry="4.00002"/>
<polygon fill="#e7a303" stroke="#e7a303" points="897.971,-1111.44 900.408,-1122.13 900.985,-1115.43 903.999,-1119.42 903.999,-1119.42 903.999,-1119.42 900.985,-1115.43 907.59,-1116.7 897.971,-1111.44 897.971,-1111.44"/>
</g>
<!-- User&#45;&gt;Recipe -->
<g id="edge39" class="edge"><title>User&#45;&gt;Recipe</title>
<path fill="none" stroke="#95e0e6" d="M936.392,-926.924C929.371,-940.231 923.342,-954.049 919.041,-968 905.815,-1010.9 905.555,-1026.18 919.041,-1069 923.511,-1083.19 929.967,-1097.2 937.47,-1110.56"/>
<polygon fill="#95e0e6" stroke="#95e0e6" points="936.59,-926.563 945.347,-919.963 938.996,-922.18 941.402,-917.797 941.402,-917.797 941.402,-917.797 938.996,-922.18 937.458,-915.631 936.59,-926.563 936.59,-926.563"/>
<polygon fill="#95e0e6" stroke="#95e0e6" points="937.498,-1110.6 938.657,-1121.51 940.02,-1114.92 942.543,-1119.24 942.543,-1119.24 942.543,-1119.24 940.02,-1114.92 946.428,-1116.97 937.498,-1110.6 937.498,-1110.6"/>
<text text-anchor="middle" x="958.479" y="-1014.3" font-family="Times,serif" font-size="14.00">recipes_made</text>
</g>
<!-- User&#45;&gt;Recipe -->
<g id="edge41" class="edge"><title>User&#45;&gt;Recipe</title>
<path fill="none" stroke="#25b69d" d="M1022.97,-928.004C1021.96,-985.324 1020.75,-1053.93 1019.78,-1109.18"/>
<polygon fill="#25b69d" stroke="#25b69d" points="1022.97,-927.806 1027.65,-917.886 1023.06,-922.806 1023.15,-917.807 1023.15,-917.807 1023.15,-917.807 1023.06,-922.806 1018.65,-917.728 1022.97,-927.806 1022.97,-927.806"/>
<polygon fill="#25b69d" stroke="#25b69d" points="1019.78,-1109.19 1015.11,-1119.11 1019.69,-1114.19 1019.61,-1119.19 1019.61,-1119.19 1019.61,-1119.19 1019.69,-1114.19 1024.11,-1119.27 1019.78,-1109.19 1019.78,-1109.19"/>
<text text-anchor="middle" x="1062.26" y="-1014.3" font-family="Times,serif" font-size="14.00">recipes_saved</text>
</g>
<!-- User&#45;&gt;Recipe -->
<g id="edge43" class="edge"><title>User&#45;&gt;Recipe</title>
<path fill="none" stroke="#2e00aa" d="M1092.26,-927.014C1097.86,-940.479 1102.65,-954.307 1106,-968 1116.68,-1011.6 1118.33,-1025.84 1106,-1069 1102.03,-1082.9 1096.26,-1096.76 1089.54,-1110.08"/>
<polygon fill="#2e00aa" stroke="#2e00aa" points="1092.23,-926.936 1092.39,-915.972 1090.24,-922.346 1088.26,-917.755 1088.26,-917.755 1088.26,-917.755 1090.24,-922.346 1084.13,-919.539 1092.23,-926.936 1092.23,-926.936"/>
<polygon fill="#2e00aa" stroke="#2e00aa" points="1089.39,-1110.35 1080.76,-1117.11 1087.07,-1114.77 1084.74,-1119.2 1084.74,-1119.2 1084.74,-1119.2 1087.07,-1114.77 1088.73,-1121.29 1089.39,-1110.35 1089.39,-1110.35"/>
<text text-anchor="middle" x="1151.31" y="-1014.3" font-family="Times,serif" font-size="14.00">rated_recipes</text>
</g>
<!-- User&#45;&gt;SavedRecipe -->
<g id="edge40" class="edge"><title>User&#45;&gt;SavedRecipe</title>
<path fill="none" stroke="#14b107" d="M857.638,-707.901C855.421,-706.911 853.208,-705.944 851,-705 772.284,-671.363 747.006,-679.549 665,-655 652.827,-651.356 640.209,-647.445 627.595,-643.444"/>
<ellipse fill="none" stroke="#14b107" cx="861.549" cy="-709.688" rx="4.00002" ry="4.00002"/>
<polygon fill="#14b107" stroke="#14b107" points="627.484,-643.408 619.325,-636.082 622.721,-641.889 617.957,-640.369 617.957,-640.369 617.957,-640.369 622.721,-641.889 616.589,-644.656 627.484,-643.408 627.484,-643.408"/>
</g>
<!-- User&#45;&gt;Subscription -->
<g id="edge34" class="edge"><title>User&#45;&gt;Subscription</title>
<path fill="none" stroke="#df455c" d="M1137.14,-697.347C1137.32,-689.283 1135.46,-681.125 1131,-673 1127.42,-666.469 1122.99,-660.428 1117.98,-654.855"/>
<ellipse fill="none" stroke="#df455c" cx="1136.71" cy="-701.397" rx="4" ry="4"/>
<polygon fill="#df455c" stroke="#df455c" points="1117.8,-654.68 1114.01,-644.391 1114.3,-651.111 1110.8,-647.542 1110.8,-647.542 1110.8,-647.542 1114.3,-651.111 1107.59,-650.694 1117.8,-654.68 1117.8,-654.68"/>
<text text-anchor="middle" x="1214.31" y="-675.8" font-family="Times,serif" font-size="14.00">initiated_subscribe_requests</text>
</g>
<!-- User&#45;&gt;Subscription -->
<g id="edge36" class="edge"><title>User&#45;&gt;Subscription</title>
<path fill="none" stroke="#49744d" d="M954.588,-697.637C953.365,-694.098 952.254,-690.549 951.275,-687 948.392,-676.544 949.981,-666.313 954.175,-656.736"/>
<ellipse fill="none" stroke="#49744d" cx="956.055" cy="-701.609" rx="4.00001" ry="4.00001"/>
<polygon fill="#49744d" stroke="#49744d" points="954.247,-656.601 962.909,-649.877 956.59,-652.184 958.934,-647.768 958.934,-647.768 958.934,-647.768 956.59,-652.184 954.959,-645.658 954.247,-656.601 954.247,-656.601"/>
<text text-anchor="middle" x="1039.86" y="-675.8" font-family="Times,serif" font-size="14.00">received_subscription_requests</text>
</g>
<!-- User&#45;&gt;User -->
<g id="edge35" class="edge"><title>User&#45;&gt;User</title>
<path fill="none" stroke="#de1f48" d="M1193.88,-824.856C1199.46,-821.276 1202.63,-816.824 1202.63,-811.5 1202.63,-806.176 1199.46,-801.724 1193.88,-798.144"/>
<polygon fill="#de1f48" stroke="#de1f48" points="1193.88,-824.858 1182.91,-825.142 1189.37,-827.027 1184.87,-829.197 1184.87,-829.197 1184.87,-829.197 1189.37,-827.027 1186.82,-833.251 1193.88,-824.858 1193.88,-824.858"/>
<polygon fill="#de1f48" stroke="#de1f48" points="1193.88,-798.142 1186.82,-789.749 1189.37,-795.973 1184.87,-793.803 1184.87,-793.803 1184.87,-793.803 1189.37,-795.973 1182.91,-797.858 1193.88,-798.142 1193.88,-798.142"/>
<text text-anchor="middle" x="1239.58" y="-807.3" font-family="Times,serif" font-size="14.00">subscriptions</text>
</g>
<!-- UsersSubscribedBy -->
<g id="node19" class="node"><title>UsersSubscribedBy</title>
<ellipse fill="none" stroke="black" cx="754" cy="-597.5" rx="79.7316" ry="18"/>
<text text-anchor="middle" x="754" y="-593.3" font-family="Times,serif" font-size="14.00">UsersSubscribedBy</text>
</g>
<!-- User&#45;&gt;UsersSubscribedBy -->
<g id="edge37" class="edge"><title>User&#45;&gt;UsersSubscribedBy</title>
<path fill="none" stroke="#200ae6" d="M863.223,-699.108C858.049,-695.074 852.962,-691.031 848,-687 822.883,-666.596 796.199,-641.058 777.704,-622.667"/>
<polygon fill="#200ae6" stroke="#200ae6" points="863.503,-699.325 868.666,-708.999 867.46,-702.381 871.417,-705.438 871.417,-705.438 871.417,-705.438 867.46,-702.381 874.168,-701.877 863.503,-699.325 863.503,-699.325"/>
<polygon fill="#200ae6" stroke="#200ae6" points="777.373,-622.335 773.492,-612.079 773.84,-618.797 770.307,-615.258 770.307,-615.258 770.307,-615.258 773.84,-618.797 767.123,-618.438 777.373,-622.335 777.373,-622.335"/>
</g>
</g>
</svg>
