<?xml version="1.0" encoding="UTF-8" standalone="no"?>
<!DOCTYPE svg PUBLIC "-//W3C//DTD SVG 1.1//EN"
 "http://www.w3.org/Graphics/SVG/1.1/DTD/svg11.dtd">
<!-- Generated by graphviz version 2.38.0 (20140413.2041)
 -->
<!-- Title: models_diagram Pages: 1 -->
<svg width="1494pt" height="558pt"
 viewBox="0.00 0.00 1494.00 558.00" xmlns="http://www.w3.org/2000/svg" xmlns:xlink="http://www.w3.org/1999/xlink">
<g id="graph0" class="graph" transform="scale(1 1) rotate(0) translate(4 554)">
<title>models_diagram</title>
<polygon fill="none" stroke="none" points="-4,4 -4,-554 1490,-554 1490,4 -4,4"/>
<!-- _diagram_info -->
<g id="node1" class="node"><title>_diagram_info</title>
<text text-anchor="start" x="309.312" y="-535.6" font-family="Times,serif" font-size="13.00">Models diagram</text>
<text text-anchor="start" x="309.312" y="-522.6" font-family="Times,serif" font-size="13.00">Date: Apr 28 2016 &#45; 17:55</text>
<text text-anchor="start" x="309.312" y="-509.6" font-family="Times,serif" font-size="13.00">Migration version: 20160425235435</text>
<text text-anchor="start" x="309.312" y="-496.6" font-family="Times,serif" font-size="13.00">Generated by RailRoady 1.4.2</text>
<text text-anchor="start" x="309.312" y="-483.6" font-family="Times,serif" font-size="13.00">http://railroady.prestonlee.com</text>
</g>
<!-- Activity -->
<g id="node2" class="node"><title>Activity</title>
<ellipse fill="none" stroke="black" cx="566" cy="-513.5" rx="39.18" ry="18"/>
<text text-anchor="middle" x="566" y="-509.3" font-family="Times,serif" font-size="14.00">Activity</text>
</g>
<!-- Comment -->
<g id="node3" class="node"><title>Comment</title>
<ellipse fill="none" stroke="black" cx="149" cy="-237" rx="44.9768" ry="18"/>
<text text-anchor="middle" x="149" y="-232.8" font-family="Times,serif" font-size="14.00">Comment</text>
</g>
<!-- Profile -->
<g id="node7" class="node"><title>Profile</title>
<ellipse fill="none" stroke="black" cx="295" cy="-164" rx="33.8857" ry="18"/>
<text text-anchor="middle" x="295" y="-159.8" font-family="Times,serif" font-size="14.00">Profile</text>
</g>
<!-- Comment&#45;&gt;Profile -->
<g id="edge1" class="edge"><title>Comment&#45;&gt;Profile</title>
<path fill="none" stroke="#9a4075" d="M183.737,-219.107C207.883,-207.365 239.814,-191.837 263.274,-180.428"/>
<ellipse fill="none" stroke="#9a4075" cx="180.059" cy="-220.896" rx="4.00002" ry="4.00002"/>
<ellipse fill="#9a4075" stroke="#9a4075" cx="266.976" cy="-178.628" rx="4.00002" ry="4.00002"/>
</g>
<!-- Ingredient -->
<g id="node4" class="node"><title>Ingredient</title>
<ellipse fill="none" stroke="black" cx="1174" cy="-409" rx="46.3959" ry="18"/>
<text text-anchor="middle" x="1174" y="-404.8" font-family="Times,serif" font-size="14.00">Ingredient</text>
</g>
<!-- RecipeIngredient -->
<g id="node10" class="node"><title>RecipeIngredient</title>
<ellipse fill="none" stroke="black" cx="1254" cy="-323" rx="71.0013" ry="18"/>
<text text-anchor="middle" x="1254" y="-318.8" font-family="Times,serif" font-size="14.00">RecipeIngredient</text>
</g>
<!-- Ingredient&#45;&gt;RecipeIngredient -->
<g id="edge2" class="edge"><title>Ingredient&#45;&gt;RecipeIngredient</title>
<path fill="none" stroke="#411e79" d="M1194.95,-386.002C1206.02,-374.382 1219.62,-360.097 1230.98,-348.168"/>
<ellipse fill="none" stroke="#411e79" cx="1192.18" cy="-388.907" rx="4.00002" ry="4.00002"/>
<polygon fill="#411e79" stroke="#411e79" points="1231.18,-347.963 1241.33,-343.825 1234.63,-344.342 1238.07,-340.721 1238.07,-340.721 1238.07,-340.721 1234.63,-344.342 1234.82,-337.618 1231.18,-347.963 1231.18,-347.963"/>
</g>
<!-- MadeRecipe -->
<g id="node5" class="node"><title>MadeRecipe</title>
<ellipse fill="none" stroke="black" cx="364" cy="-409" rx="54.5904" ry="18"/>
<text text-anchor="middle" x="364" y="-404.8" font-family="Times,serif" font-size="14.00">MadeRecipe</text>
</g>
<!-- Photo -->
<g id="node6" class="node"><title>Photo</title>
<ellipse fill="none" stroke="black" cx="255" cy="-323" rx="30.9967" ry="18"/>
<text text-anchor="middle" x="255" y="-318.8" font-family="Times,serif" font-size="14.00">Photo</text>
</g>
<!-- MadeRecipe&#45;&gt;Photo -->
<g id="edge6" class="edge"><title>MadeRecipe&#45;&gt;Photo</title>
<path fill="none" stroke="#f558a6" d="M324.445,-389.014C316.047,-384.27 307.47,-378.847 300,-373 290.53,-365.587 281.319,-356.098 273.723,-347.448"/>
<polygon fill="#f558a6" stroke="#f558a6" points="324.636,-389.118 331.281,-397.841 329.031,-391.502 333.427,-393.886 333.427,-393.886 333.427,-393.886 329.031,-391.502 335.572,-389.93 324.636,-389.118 324.636,-389.118"/>
<polygon fill="#f558a6" stroke="#f558a6" points="273.718,-347.442 270.668,-336.908 270.479,-343.633 267.24,-339.823 267.24,-339.823 267.24,-339.823 270.479,-343.633 263.812,-342.739 273.718,-347.442 273.718,-347.442"/>
</g>
<!-- MadeRecipe&#45;&gt;Profile -->
<g id="edge3" class="edge"><title>MadeRecipe&#45;&gt;Profile</title>
<path fill="none" stroke="#4c63ac" d="M363.413,-382.607C361.772,-345.386 355.646,-274.425 333,-219 328.394,-207.728 321.069,-196.514 314.073,-187.249"/>
<ellipse fill="none" stroke="#4c63ac" cx="363.576" cy="-386.886" rx="4" ry="4"/>
<ellipse fill="#4c63ac" stroke="#4c63ac" cx="311.548" cy="-184.024" rx="4.00002" ry="4.00002"/>
</g>
<!-- MadeRecipe&#45;&gt;Profile -->
<g id="edge5" class="edge"><title>MadeRecipe&#45;&gt;Profile</title>
<path fill="none" stroke="#fd9a84" d="M353.966,-383.165C343.041,-359.367 323.267,-324.3 295,-305 264.393,-284.102 249.573,-295.83 213.579,-287 160.564,-273.994 128.192,-298.336 95,-255 50.9494,-197.486 182.855,-175.749 253.499,-168.378"/>
<ellipse fill="none" stroke="#fd9a84" cx="355.712" cy="-387.107" rx="4.00002" ry="4.00002"/>
<ellipse fill="#fd9a84" stroke="#fd9a84" cx="257.814" cy="-167.947" rx="4" ry="4"/>
<text text-anchor="middle" x="272.71" y="-275.8" font-family="Times,serif" font-size="14.00">original_user_profile</text>
</g>
<!-- Recipe -->
<g id="node9" class="node"><title>Recipe</title>
<ellipse fill="none" stroke="black" cx="658" cy="-513.5" rx="34.8198" ry="18"/>
<text text-anchor="middle" x="658" y="-509.3" font-family="Times,serif" font-size="14.00">Recipe</text>
</g>
<!-- MadeRecipe&#45;&gt;Recipe -->
<g id="edge8" class="edge"><title>MadeRecipe&#45;&gt;Recipe</title>
<path fill="none" stroke="#32f734" d="M328.087,-430.438C316.975,-439.25 309.698,-449.657 318.489,-459 341.032,-482.957 583.329,-465.109 614,-477 621.85,-480.044 629.38,-485.033 635.922,-490.323"/>
<polygon fill="#32f734" stroke="#32f734" points="328.099,-430.43 338.854,-428.29 332.171,-427.528 336.243,-424.626 336.243,-424.626 336.243,-424.626 332.171,-427.528 333.631,-420.961 328.099,-430.43 328.099,-430.43"/>
<polygon fill="#32f734" stroke="#32f734" points="636.102,-490.48 640.67,-500.449 639.866,-493.77 643.631,-497.061 643.631,-497.061 643.631,-497.061 639.866,-493.77 646.593,-493.672 636.102,-490.48 636.102,-490.48"/>
<text text-anchor="middle" x="389.755" y="-447.8" font-family="Times,serif" font-size="14.00">recipes_by_original_user</text>
</g>
<!-- User -->
<g id="node17" class="node"><title>User</title>
<ellipse fill="none" stroke="black" cx="601" cy="-323" rx="27" ry="18"/>
<text text-anchor="middle" x="601" y="-318.8" font-family="Times,serif" font-size="14.00">User</text>
</g>
<!-- MadeRecipe&#45;&gt;User -->
<g id="edge4" class="edge"><title>MadeRecipe&#45;&gt;User</title>
<path fill="none" stroke="#6a9eaf" d="M375.249,-383.774C380.807,-374.502 388.43,-364.774 398.131,-359 459.951,-322.202 489.258,-358.661 559,-341 563.289,-339.914 567.722,-338.484 572.027,-336.914"/>
<ellipse fill="none" stroke="#6a9eaf" cx="373.171" cy="-387.53" rx="4.00002" ry="4.00002"/>
<ellipse fill="#6a9eaf" stroke="#6a9eaf" cx="575.852" cy="-335.429" rx="4.00001" ry="4.00001"/>
<text text-anchor="middle" x="435.935" y="-361.8" font-family="Times,serif" font-size="14.00">original_user</text>
</g>
<!-- MadeRecipe&#45;&gt;User -->
<g id="edge7" class="edge"><title>MadeRecipe&#45;&gt;User</title>
<path fill="none" stroke="#91dbc6" d="M414.994,-394.131C433.32,-388.457 453.92,-381.271 472,-373 482.921,-368.004 484.095,-363.783 495.11,-359 522.17,-347.25 531.087,-350.549 559,-341 562.377,-339.845 565.877,-338.565 569.349,-337.241"/>
<polygon fill="#91dbc6" stroke="#91dbc6" points="414.933,-394.149 404.059,-392.733 410.147,-395.595 405.36,-397.04 405.36,-397.04 405.36,-397.04 410.147,-395.595 406.662,-401.348 414.933,-394.149 414.933,-394.149"/>
<polygon fill="#91dbc6" stroke="#91dbc6" points="569.636,-337.128 580.59,-337.646 574.287,-335.294 578.939,-333.46 578.939,-333.46 578.939,-333.46 574.287,-335.294 577.288,-329.273 569.636,-337.128 569.636,-337.128"/>
<text text-anchor="middle" x="532.945" y="-361.8" font-family="Times,serif" font-size="14.00">subscriptions</text>
</g>
<!-- Tag -->
<g id="node14" class="node"><title>Tag</title>
<ellipse fill="none" stroke="black" cx="254" cy="-91" rx="27" ry="18"/>
<text text-anchor="middle" x="254" y="-86.8" font-family="Times,serif" font-size="14.00">Tag</text>
</g>
<!-- Profile&#45;&gt;Tag -->
<g id="edge10" class="edge"><title>Profile&#45;&gt;Tag</title>
<path fill="none" stroke="#35f0d9" d="M280.358,-137.644C276.492,-130.949 272.322,-123.728 268.465,-117.049"/>
<polygon fill="#35f0d9" stroke="#35f0d9" points="280.49,-137.873 281.594,-148.783 282.99,-142.203 285.491,-146.533 285.491,-146.533 285.491,-146.533 282.99,-142.203 289.388,-144.282 280.49,-137.873 280.49,-137.873"/>
<polygon fill="#35f0d9" stroke="#35f0d9" points="268.459,-117.038 267.355,-106.128 265.958,-112.708 263.458,-108.378 263.458,-108.378 263.458,-108.378 265.958,-112.708 259.561,-110.628 268.459,-117.038 268.459,-117.038"/>
</g>
<!-- Tagging -->
<g id="node15" class="node"><title>Tagging</title>
<ellipse fill="none" stroke="black" cx="309" cy="-18" rx="38.9207" ry="18"/>
<text text-anchor="middle" x="309" y="-13.8" font-family="Times,serif" font-size="14.00">Tagging</text>
</g>
<!-- Profile&#45;&gt;Tagging -->
<g id="edge9" class="edge"><title>Profile&#45;&gt;Tagging</title>
<path fill="none" stroke="#541865" d="M297.446,-137.838C299.942,-112.172 303.801,-72.4773 306.363,-46.1235"/>
<ellipse fill="none" stroke="#541865" cx="297.048" cy="-141.935" rx="4" ry="4"/>
<polygon fill="#541865" stroke="#541865" points="306.373,-46.015 311.82,-36.4974 306.857,-41.0385 307.341,-36.0619 307.341,-36.0619 307.341,-36.0619 306.857,-41.0385 302.862,-35.6264 306.373,-46.015 306.373,-46.015"/>
</g>
<!-- Rating -->
<g id="node8" class="node"><title>Rating</title>
<ellipse fill="none" stroke="black" cx="999" cy="-237" rx="33.877" ry="18"/>
<text text-anchor="middle" x="999" y="-232.8" font-family="Times,serif" font-size="14.00">Rating</text>
</g>
<!-- Recipe&#45;&gt;Comment -->
<g id="edge18" class="edge"><title>Recipe&#45;&gt;Comment</title>
<path fill="none" stroke="#2cc3fb" d="M637.66,-491.697C630.733,-485.891 622.562,-480.279 614,-477 542.928,-449.782 342.402,-487.907 272,-459 217.06,-436.441 145.964,-378.656 111,-287 107.288,-277.269 111.809,-267.894 118.871,-259.997"/>
<ellipse fill="none" stroke="#2cc3fb" cx="640.657" cy="-494.364" rx="4.00002" ry="4.00002"/>
<polygon fill="#2cc3fb" stroke="#2cc3fb" points="119.342,-259.546 129.679,-255.885 122.955,-256.089 126.568,-252.633 126.568,-252.633 126.568,-252.633 122.955,-256.089 123.458,-249.381 119.342,-259.546 119.342,-259.546"/>
</g>
<!-- Recipe&#45;&gt;Ingredient -->
<g id="edge13" class="edge"><title>Recipe&#45;&gt;Ingredient</title>
<path fill="none" stroke="#d47a86" d="M697.173,-501.048C725.935,-493.08 766.085,-482.871 802,-477 897.945,-461.315 924.628,-477.858 1020,-459 1059.12,-451.265 1102.26,-437.017 1132.91,-425.871"/>
<polygon fill="#d47a86" stroke="#d47a86" points="697.128,-501.06 686.284,-499.429 692.314,-502.411 687.5,-503.762 687.5,-503.762 687.5,-503.762 692.314,-502.411 688.715,-508.094 697.128,-501.06 697.128,-501.06"/>
<polygon fill="#d47a86" stroke="#d47a86" points="1133.02,-425.831 1143.96,-426.596 1137.71,-424.102 1142.4,-422.373 1142.4,-422.373 1142.4,-422.373 1137.71,-424.102 1140.84,-418.151 1133.02,-425.831 1133.02,-425.831"/>
</g>
<!-- Recipe&#45;&gt;MadeRecipe -->
<g id="edge20" class="edge"><title>Recipe&#45;&gt;MadeRecipe</title>
<path fill="none" stroke="#b44b6f" d="M636.709,-491.524C629.943,-485.958 622.1,-480.524 614,-477 562.129,-454.431 541.995,-475.867 488,-459 474.72,-454.852 472.779,-450.503 460,-445 444.078,-438.144 426.324,-431.422 410.456,-425.731"/>
<ellipse fill="none" stroke="#b44b6f" cx="640.066" cy="-494.442" rx="4.00002" ry="4.00002"/>
<polygon fill="#b44b6f" stroke="#b44b6f" points="410.279,-425.668 402.356,-418.087 405.566,-423.999 400.853,-422.329 400.853,-422.329 400.853,-422.329 405.566,-423.999 399.35,-426.571 410.279,-425.668 410.279,-425.668"/>
</g>
<!-- Recipe&#45;&gt;Photo -->
<g id="edge15" class="edge"><title>Recipe&#45;&gt;Photo</title>
<path fill="none" stroke="#488ea8" d="M637.646,-491.732C630.719,-485.928 622.551,-480.308 614,-477 551.091,-452.664 365.958,-498.107 311,-459 275.895,-434.019 262.722,-382.783 257.831,-351.112"/>
<ellipse fill="none" stroke="#488ea8" cx="640.644" cy="-494.397" rx="4.00002" ry="4.00002"/>
<polygon fill="#488ea8" stroke="#488ea8" points="257.829,-351.095 260.929,-340.576 257.15,-346.141 256.47,-341.187 256.47,-341.187 256.47,-341.187 257.15,-346.141 252.012,-341.799 257.829,-351.095 257.829,-351.095"/>
</g>
<!-- Recipe&#45;&gt;Profile -->
<g id="edge11" class="edge"><title>Recipe&#45;&gt;Profile</title>
<path fill="none" stroke="#225c31" d="M637.668,-491.675C630.742,-485.867 622.569,-480.26 614,-477 536.439,-447.491 323.144,-470.788 241,-459 149.128,-445.816 38,-502.813 38,-410 38,-410 38,-410 38,-236 38,-191.818 180.9,-174.049 253.586,-167.868"/>
<ellipse fill="none" stroke="#225c31" cx="640.666" cy="-494.343" rx="4.00002" ry="4.00002"/>
<ellipse fill="#225c31" stroke="#225c31" cx="257.679" cy="-167.532" rx="4" ry="4"/>
</g>
<!-- Recipe&#45;&gt;Rating -->
<g id="edge22" class="edge"><title>Recipe&#45;&gt;Rating</title>
<path fill="none" stroke="#d2949e" d="M697.171,-503.189C736.837,-493.425 799.759,-477.018 853,-459 888.883,-446.857 905.812,-454.372 932,-427 975.65,-381.377 991.08,-305.532 996.367,-265.189"/>
<ellipse fill="none" stroke="#d2949e" cx="692.957" cy="-504.219" rx="4.00001" ry="4.00001"/>
<polygon fill="#d2949e" stroke="#d2949e" points="996.393,-264.968 1002.05,-255.572 996.986,-260.003 997.579,-255.039 997.579,-255.039 997.579,-255.039 996.986,-260.003 993.111,-254.505 996.393,-264.968 996.393,-264.968"/>
</g>
<!-- Recipe&#45;&gt;Recipe -->
<g id="edge24" class="edge"><title>Recipe&#45;&gt;Recipe</title>
<path fill="none" stroke="#97db65" d="M693.742,-524.664C703.354,-524.064 710.66,-520.343 710.66,-513.5 710.66,-507.132 704.332,-503.467 695.706,-502.506"/>
<ellipse fill="none" stroke="#97db65" cx="689.633" cy="-524.568" rx="4" ry="4"/>
<polygon fill="#97db65" stroke="#97db65" points="695.634,-502.506 685.626,-498.025 690.634,-502.515 685.634,-502.525 685.634,-502.525 685.634,-502.525 690.634,-502.515 685.642,-507.025 695.634,-502.506 695.634,-502.506"/>
<text text-anchor="middle" x="752.249" y="-509.3" font-family="Times,serif" font-size="14.00">forked_recipes</text>
</g>
<!-- Recipe&#45;&gt;RecipeIngredient -->
<g id="edge12" class="edge"><title>Recipe&#45;&gt;RecipeIngredient</title>
<path fill="none" stroke="#7f4b3b" d="M694.988,-501.366C723.852,-493.17 765.108,-482.529 802,-477 857.107,-468.74 1265.27,-469.763 1301,-427 1320.73,-403.386 1298.75,-370.138 1278.7,-347.867"/>
<ellipse fill="none" stroke="#7f4b3b" cx="691.034" cy="-502.502" rx="4.00001" ry="4.00001"/>
<polygon fill="#7f4b3b" stroke="#7f4b3b" points="1278.61,-347.769 1275.04,-337.4 1275.19,-344.125 1271.76,-340.481 1271.76,-340.481 1271.76,-340.481 1275.19,-344.125 1268.48,-343.563 1278.61,-347.769 1278.61,-347.769"/>
</g>
<!-- SavedRecipe -->
<g id="node12" class="node"><title>SavedRecipe</title>
<ellipse fill="none" stroke="black" cx="268" cy="-237" rx="56.0441" ry="18"/>
<text text-anchor="middle" x="268" y="-232.8" font-family="Times,serif" font-size="14.00">SavedRecipe</text>
</g>
<!-- Recipe&#45;&gt;SavedRecipe -->
<g id="edge21" class="edge"><title>Recipe&#45;&gt;SavedRecipe</title>
<path fill="none" stroke="#9d6cf8" d="M637.653,-491.715C630.726,-485.91 622.556,-480.293 614,-477 547.324,-451.334 357.479,-489.772 293,-459 257.743,-442.174 215.687,-343.593 215,-341 210.903,-325.533 206.514,-318.564 215,-305 224.699,-289.497 239.986,-300.787 252,-287 257.396,-280.808 260.98,-272.757 263.357,-264.977"/>
<ellipse fill="none" stroke="#9d6cf8" cx="640.651" cy="-494.381" rx="4.00002" ry="4.00002"/>
<polygon fill="#9d6cf8" stroke="#9d6cf8" points="263.405,-264.783 270.202,-256.178 264.621,-259.934 265.837,-255.084 265.837,-255.084 265.837,-255.084 264.621,-259.934 261.472,-253.989 263.405,-264.783 263.405,-264.783"/>
</g>
<!-- Recipe&#45;&gt;Tag -->
<g id="edge17" class="edge"><title>Recipe&#45;&gt;Tag</title>
<path fill="none" stroke="#5d234f" d="M635.98,-490.171C629.438,-484.88 621.894,-479.929 614,-477 554.696,-454.998 102.502,-485.356 45,-459 18.1208,-446.68 0,-439.568 0,-410 0,-410 0,-410 0,-163 0,-118.468 146.642,-100.618 217.082,-94.6131"/>
<polygon fill="#5d234f" stroke="#5d234f" points="636.164,-490.332 640.715,-500.309 639.923,-493.629 643.682,-496.926 643.682,-496.926 643.682,-496.926 639.923,-493.629 646.65,-493.543 636.164,-490.332 636.164,-490.332"/>
<polygon fill="#5d234f" stroke="#5d234f" points="217.331,-94.5929 227.663,-98.265 222.314,-94.1864 227.298,-93.7799 227.298,-93.7799 227.298,-93.7799 222.314,-94.1864 226.932,-89.2948 217.331,-94.5929 217.331,-94.5929"/>
</g>
<!-- Recipe&#45;&gt;Tagging -->
<g id="edge16" class="edge"><title>Recipe&#45;&gt;Tagging</title>
<path fill="none" stroke="#1b8a56" d="M694.689,-501.265C723.552,-492.962 764.945,-482.228 802,-477 877.615,-466.332 1486,-486.364 1486,-410 1486,-410 1486,-410 1486,-90 1486,-32.5688 581.336,-21.2666 358.262,-19.3526"/>
<ellipse fill="none" stroke="#1b8a56" cx="690.735" cy="-502.417" rx="4.00001" ry="4.00001"/>
<polygon fill="#1b8a56" stroke="#1b8a56" points="358.161,-19.3519 348.198,-14.7686 353.161,-19.3102 348.161,-19.2684 348.161,-19.2684 348.161,-19.2684 353.161,-19.3102 348.123,-23.7683 358.161,-19.3519 358.161,-19.3519"/>
</g>
<!-- Unit -->
<g id="node16" class="node"><title>Unit</title>
<ellipse fill="none" stroke="black" cx="1265" cy="-409" rx="27" ry="18"/>
<text text-anchor="middle" x="1265" y="-404.8" font-family="Times,serif" font-size="14.00">Unit</text>
</g>
<!-- Recipe&#45;&gt;Unit -->
<g id="edge14" class="edge"><title>Recipe&#45;&gt;Unit</title>
<path fill="none" stroke="#3f6401" d="M696.878,-500.989C725.648,-492.945 765.935,-482.665 802,-477 915.115,-459.231 945.435,-473.615 1059,-459 1135.25,-449.187 1155.87,-450.718 1229,-427 1230.92,-426.376 1232.88,-425.673 1234.83,-424.917"/>
<polygon fill="#3f6401" stroke="#3f6401" points="696.829,-501.003 685.981,-499.401 692.019,-502.367 687.208,-503.73 687.208,-503.73 687.208,-503.73 692.019,-502.367 688.436,-508.06 696.829,-501.003 696.829,-501.003"/>
<polygon fill="#3f6401" stroke="#3f6401" points="1235.23,-424.745 1246.2,-424.953 1239.83,-422.78 1244.43,-420.815 1244.43,-420.815 1244.43,-420.815 1239.83,-422.78 1242.66,-416.677 1235.23,-424.745 1235.23,-424.745"/>
</g>
<!-- Recipe&#45;&gt;User -->
<g id="edge19" class="edge"><title>Recipe&#45;&gt;User</title>
<path fill="none" stroke="#5560ed" d="M700.304,-504.73C768.533,-490.17 891.445,-454.384 852,-391 829.314,-354.545 701.529,-335.255 637.529,-327.762"/>
<polygon fill="#5560ed" stroke="#5560ed" points="700.051,-504.782 689.348,-502.398 695.155,-505.794 690.258,-506.805 690.258,-506.805 690.258,-506.805 695.155,-505.794 691.169,-511.212 700.051,-504.782 700.051,-504.782"/>
<polygon fill="#5560ed" stroke="#5560ed" points="637.399,-327.748 627.97,-322.149 632.43,-327.184 627.462,-326.62 627.462,-326.62 627.462,-326.62 632.43,-327.184 626.955,-331.091 637.399,-327.748 637.399,-327.748"/>
<text text-anchor="middle" x="894.21" y="-404.8" font-family="Times,serif" font-size="14.00">commenters</text>
</g>
<!-- UsersRated -->
<g id="node18" class="node"><title>UsersRated</title>
<ellipse fill="none" stroke="black" cx="1059" cy="-409" rx="50.7483" ry="18"/>
<text text-anchor="middle" x="1059" y="-404.8" font-family="Times,serif" font-size="14.00">UsersRated</text>
</g>
<!-- Recipe&#45;&gt;UsersRated -->
<g id="edge23" class="edge"><title>Recipe&#45;&gt;UsersRated</title>
<path fill="none" stroke="#0b2ceb" d="M697.193,-501.168C725.964,-493.259 766.118,-483.07 802,-477 886.507,-462.703 914.084,-489.971 994,-459 1009.06,-453.165 1023.62,-442.777 1035.14,-433.062"/>
<polygon fill="#0b2ceb" stroke="#0b2ceb" points="697.15,-501.179 686.31,-499.524 692.333,-502.519 687.516,-503.859 687.516,-503.859 687.516,-503.859 692.333,-502.519 688.722,-508.195 697.15,-501.179 697.15,-501.179"/>
<polygon fill="#0b2ceb" stroke="#0b2ceb" points="1035.44,-432.794 1045.92,-429.559 1039.19,-429.488 1042.94,-426.183 1042.94,-426.183 1042.94,-426.183 1039.19,-429.488 1039.97,-422.806 1035.44,-432.794 1035.44,-432.794"/>
</g>
<!-- RecipeScraper -->
<g id="node11" class="node"><title>RecipeScraper</title>
<polygon fill="none" stroke="black" points="908.622,-531.5 811.378,-531.5 811.378,-495.5 908.622,-495.5 908.622,-531.5"/>
<text text-anchor="middle" x="860" y="-509.3" font-family="Times,serif" font-size="14.00">RecipeScraper</text>
</g>
<!-- Subscription -->
<g id="node13" class="node"><title>Subscription</title>
<ellipse fill="none" stroke="black" cx="651" cy="-237" rx="54.6334" ry="18"/>
<text text-anchor="middle" x="651" y="-232.8" font-family="Times,serif" font-size="14.00">Subscription</text>
</g>
<!-- Subscription&#45;&gt;MadeRecipe -->
<g id="edge27" class="edge"><title>Subscription&#45;&gt;MadeRecipe</title>
<path fill="none" stroke="#5f0910" d="M594.27,-248.435C532.291,-260.741 438.018,-282.399 409.523,-305 385.906,-323.732 374.224,-357.263 368.668,-380.971"/>
<polygon fill="#5f0910" stroke="#5f0910" points="594.49,-248.392 605.169,-250.884 599.397,-247.43 604.303,-246.468 604.303,-246.468 604.303,-246.468 599.397,-247.43 603.438,-242.052 594.49,-248.392 594.49,-248.392"/>
<polygon fill="#5f0910" stroke="#5f0910" points="368.664,-380.99 362.183,-389.836 367.624,-385.881 366.584,-390.771 366.584,-390.771 366.584,-390.771 367.624,-385.881 370.986,-391.707 368.664,-380.99 368.664,-380.99"/>
<text text-anchor="middle" x="487.738" y="-318.8" font-family="Times,serif" font-size="14.00">made_recipes_by_receivers</text>
</g>
<!-- Subscription&#45;&gt;Profile -->
<g id="edge25" class="edge"><title>Subscription&#45;&gt;Profile</title>
<path fill="none" stroke="#12ba75" d="M619.762,-216.667C608.276,-210.387 594.914,-204.011 582,-200 497.702,-173.82 393.792,-167.092 336.991,-165.445"/>
<ellipse fill="none" stroke="#12ba75" cx="623.531" cy="-218.79" rx="4.00002" ry="4.00002"/>
<ellipse fill="#12ba75" stroke="#12ba75" cx="332.959" cy="-165.341" rx="4" ry="4"/>
</g>
<!-- Subscription&#45;&gt;Recipe -->
<g id="edge26" class="edge"><title>Subscription&#45;&gt;Recipe</title>
<path fill="none" stroke="#d52cfa" d="M714.41,-241.927C879.856,-252.474 1313.3,-282.17 1334,-305 1352.37,-325.256 1336.25,-406.639 1318,-427 1285.15,-463.645 1260.51,-450.746 1212,-459 1032.19,-489.594 982.541,-451.044 802,-477 765.865,-482.195 725.585,-492.525 696.836,-500.708"/>
<polygon fill="#d52cfa" stroke="#d52cfa" points="714.357,-241.923 704.662,-236.799 709.367,-241.606 704.377,-241.29 704.377,-241.29 704.377,-241.29 709.367,-241.606 704.092,-245.78 714.357,-241.923 714.357,-241.923"/>
<polygon fill="#d52cfa" stroke="#d52cfa" points="696.781,-500.724 685.924,-499.178 691.977,-502.113 687.174,-503.501 687.174,-503.501 687.174,-503.501 691.977,-502.113 688.424,-507.824 696.781,-500.724 696.781,-500.724"/>
<text text-anchor="middle" x="1399.08" y="-361.8" font-family="Times,serif" font-size="14.00">recipes_by_receivers</text>
</g>
<!-- Subscription&#45;&gt;Subscription -->
<g id="edge28" class="edge"><title>Subscription&#45;&gt;Subscription</title>
<path fill="none" stroke="#1568e9" d="M712.155,-242.751C719.223,-241.685 723.816,-239.769 723.816,-237 723.816,-234.231 719.223,-232.315 712.155,-231.249"/>
<polygon fill="#1568e9" stroke="#1568e9" points="712,-242.764 701.643,-239.162 707.02,-243.204 702.039,-243.645 702.039,-243.645 702.039,-243.645 707.02,-243.204 702.435,-248.127 712,-242.764 712,-242.764"/>
<polygon fill="#1568e9" stroke="#1568e9" points="712,-231.236 702.435,-225.873 707.02,-230.796 702.039,-230.355 702.039,-230.355 702.039,-230.355 707.02,-230.796 701.643,-234.838 712,-231.236 712,-231.236"/>
<text text-anchor="middle" x="800.02" y="-232.8" font-family="Times,serif" font-size="14.00">subscriptions_by_receivers</text>
</g>
<!-- Tag&#45;&gt;Tagging -->
<g id="edge29" class="edge"><title>Tag&#45;&gt;Tagging</title>
<path fill="none" stroke="#67f033" d="M270.856,-68.2401C276.997,-60.3128 283.975,-51.3045 290.269,-43.1798"/>
<ellipse fill="none" stroke="#67f033" cx="268.384" cy="-71.4318" rx="4.00002" ry="4.00002"/>
<polygon fill="#67f033" stroke="#67f033" points="290.392,-43.0207 300.074,-37.871 293.454,-39.0679 296.516,-35.1152 296.516,-35.1152 296.516,-35.1152 293.454,-39.0679 292.959,-32.3594 290.392,-43.0207 290.392,-43.0207"/>
</g>
<!-- Unit&#45;&gt;RecipeIngredient -->
<g id="edge30" class="edge"><title>Unit&#45;&gt;RecipeIngredient</title>
<path fill="none" stroke="#27eb25" d="M1261.73,-383.047C1260.42,-373.057 1258.91,-361.517 1257.58,-351.304"/>
<ellipse fill="none" stroke="#27eb25" cx="1262.25" cy="-387.035" rx="4.00001" ry="4.00001"/>
<polygon fill="#27eb25" stroke="#27eb25" points="1257.56,-351.177 1260.72,-340.677 1256.91,-346.219 1256.26,-341.262 1256.26,-341.262 1256.26,-341.262 1256.91,-346.219 1251.8,-341.846 1257.56,-351.177 1257.56,-351.177"/>
</g>
<!-- User&#45;&gt;Comment -->
<g id="edge32" class="edge"><title>User&#45;&gt;Comment</title>
<path fill="none" stroke="#c40e56" d="M571.395,-308.974C567.285,-307.474 563.074,-306.093 559,-305 520.42,-294.651 241.961,-263.805 203,-255 199.333,-254.171 195.556,-253.211 191.785,-252.176"/>
<ellipse fill="none" stroke="#c40e56" cx="575.385" cy="-310.518" rx="4.00001" ry="4.00001"/>
<polygon fill="#c40e56" stroke="#c40e56" points="191.494,-252.092 183.145,-244.983 186.693,-250.698 181.891,-249.305 181.891,-249.305 181.891,-249.305 186.693,-250.698 180.636,-253.626 191.494,-252.092 191.494,-252.092"/>
</g>
<!-- User&#45;&gt;MadeRecipe -->
<g id="edge38" class="edge"><title>User&#45;&gt;MadeRecipe</title>
<path fill="none" stroke="#c048d8" d="M590.607,-347.933C585.421,-357.159 578.25,-366.931 569,-373 562.851,-377.035 481.457,-390.116 423.109,-399.091"/>
<ellipse fill="none" stroke="#c048d8" cx="592.501" cy="-344.283" rx="4.00002" ry="4.00002"/>
<polygon fill="#c048d8" stroke="#c048d8" points="422.754,-399.145 412.188,-396.212 417.812,-399.903 412.87,-400.66 412.87,-400.66 412.87,-400.66 417.812,-399.903 413.551,-405.108 422.754,-399.145 422.754,-399.145"/>
</g>
<!-- User&#45;&gt;Profile -->
<g id="edge33" class="edge"><title>User&#45;&gt;Profile</title>
<path fill="none" stroke="#d768df" d="M591.59,-297.678C580.641,-270.604 562.36,-229.292 549,-219 516.101,-193.658 399.01,-176.824 335.942,-169.378"/>
<ellipse fill="none" stroke="#d768df" cx="593.124" cy="-301.521" rx="4.00001" ry="4.00001"/>
<ellipse fill="#d768df" stroke="#d768df" cx="331.759" cy="-168.892" rx="4.00001" ry="4.00001"/>
</g>
<!-- User&#45;&gt;Rating -->
<g id="edge42" class="edge"><title>User&#45;&gt;Rating</title>
<path fill="none" stroke="#688952" d="M636.325,-321.287C713.017,-319.282 892.264,-311.988 947,-287 959.518,-281.285 970.952,-271.322 979.891,-261.865"/>
<ellipse fill="none" stroke="#688952" cx="631.927" cy="-321.397" rx="4" ry="4"/>
<polygon fill="#688952" stroke="#688952" points="980.122,-261.605 990.138,-257.141 983.452,-257.875 986.781,-254.145 986.781,-254.145 986.781,-254.145 983.452,-257.875 983.424,-251.148 980.122,-261.605 980.122,-261.605"/>
</g>
<!-- User&#45;&gt;Recipe -->
<g id="edge31" class="edge"><title>User&#45;&gt;Recipe</title>
<path fill="none" stroke="#e97c56" d="M600.512,-349.009C599.126,-357.58 596.129,-366.611 590,-373 568.656,-395.252 541.762,-366.532 523,-391 504.483,-415.148 509.147,-437.823 531,-459 558.107,-485.268 579.95,-460.71 614,-477 621.183,-480.436 628.232,-485.26 634.511,-490.246"/>
<ellipse fill="none" stroke="#e97c56" cx="600.956" cy="-345.01" rx="4.00001" ry="4.00001"/>
<polygon fill="#e97c56" stroke="#e97c56" points="634.899,-490.575 639.63,-500.468 638.717,-493.803 642.535,-497.031 642.535,-497.031 642.535,-497.031 638.717,-493.803 645.441,-493.595 634.899,-490.575 634.899,-490.575"/>
</g>
<!-- User&#45;&gt;Recipe -->
<g id="edge39" class="edge"><title>User&#45;&gt;Recipe</title>
<path fill="none" stroke="#a09cd7" d="M611.404,-350.018C612.908,-357.971 612.633,-366.36 608,-373 594.733,-392.012 572.308,-371.988 559.041,-391 549.885,-404.121 552.384,-412.451 559.041,-427 561.04,-431.369 603.67,-467.349 632.319,-491.221"/>
<polygon fill="#a09cd7" stroke="#a09cd7" points="611.396,-349.987 613.083,-339.151 610.07,-345.166 608.744,-340.345 608.744,-340.345 608.744,-340.345 610.07,-345.166 604.405,-341.538 611.396,-349.987 611.396,-349.987"/>
<polygon fill="#a09cd7" stroke="#a09cd7" points="632.654,-491.5 637.464,-501.354 636.498,-494.697 640.342,-497.895 640.342,-497.895 640.342,-497.895 636.498,-494.697 643.22,-494.435 632.654,-491.5 632.654,-491.5"/>
<text text-anchor="middle" x="598.479" y="-404.8" font-family="Times,serif" font-size="14.00">recipes_made</text>
</g>
<!-- User&#45;&gt;Recipe -->
<g id="edge41" class="edge"><title>User&#45;&gt;Recipe</title>
<path fill="none" stroke="#e27521" d="M618.689,-348.002C620.972,-351.595 623.153,-355.329 625,-359 645.6,-399.951 653.376,-453.341 656.287,-485.155"/>
<polygon fill="#e27521" stroke="#e27521" points="618.528,-347.763 616.671,-336.955 615.734,-343.617 612.94,-339.47 612.94,-339.47 612.94,-339.47 615.734,-343.617 609.208,-341.985 618.528,-347.763 618.528,-347.763"/>
<polygon fill="#e27521" stroke="#e27521" points="656.314,-485.486 652.641,-495.818 656.72,-490.469 657.126,-495.452 657.126,-495.452 657.126,-495.452 656.72,-490.469 661.612,-495.087 656.314,-485.486 656.314,-485.486"/>
<text text-anchor="middle" x="687.259" y="-404.8" font-family="Times,serif" font-size="14.00">recipes_saved</text>
</g>
<!-- User&#45;&gt;Recipe -->
<g id="edge43" class="edge"><title>User&#45;&gt;Recipe</title>
<path fill="none" stroke="#df2f73" d="M636.725,-331.519C667.691,-340.13 710.636,-357.595 731,-391 752.543,-426.339 714.271,-467.686 685.48,-491.894"/>
<polygon fill="#df2f73" stroke="#df2f73" points="636.412,-331.438 627.862,-324.572 631.572,-330.183 626.732,-328.928 626.732,-328.928 626.732,-328.928 631.572,-330.183 625.603,-333.283 636.412,-331.438 636.412,-331.438"/>
<polygon fill="#df2f73" stroke="#df2f73" points="685.426,-491.938 674.828,-494.757 681.547,-495.093 677.668,-498.248 677.668,-498.248 677.668,-498.248 681.547,-495.093 680.508,-501.739 685.426,-491.938 685.426,-491.938"/>
<text text-anchor="middle" x="775.311" y="-404.8" font-family="Times,serif" font-size="14.00">rated_recipes</text>
</g>
<!-- User&#45;&gt;SavedRecipe -->
<g id="edge40" class="edge"><title>User&#45;&gt;SavedRecipe</title>
<path fill="none" stroke="#96e494" d="M571.299,-309.304C567.204,-307.752 563.023,-306.269 559,-305 479.427,-279.909 384.894,-259.886 325.659,-248.475"/>
<ellipse fill="none" stroke="#96e494" cx="575.284" cy="-310.871" rx="4.00001" ry="4.00001"/>
<polygon fill="#96e494" stroke="#96e494" points="325.566,-248.457 316.587,-242.162 320.654,-247.52 315.743,-246.582 315.743,-246.582 315.743,-246.582 320.654,-247.52 314.899,-251.002 325.566,-248.457 325.566,-248.457"/>
</g>
<!-- User&#45;&gt;Subscription -->
<g id="edge34" class="edge"><title>User&#45;&gt;Subscription</title>
<path fill="none" stroke="#f989b7" d="M635.86,-320.196C682.215,-316.985 760.366,-308.462 778,-287 799.737,-260.544 756.191,-248.339 714.293,-242.728"/>
<ellipse fill="none" stroke="#f989b7" cx="631.866" cy="-320.458" rx="4" ry="4"/>
<polygon fill="#f989b7" stroke="#f989b7" points="714.209,-242.718 704.83,-237.035 709.246,-242.11 704.283,-241.502 704.283,-241.502 704.283,-241.502 709.246,-242.11 703.736,-245.968 714.209,-242.718 714.209,-242.718"/>
<text text-anchor="middle" x="863.314" y="-275.8" font-family="Times,serif" font-size="14.00">initiated_subscribe_requests</text>
</g>
<!-- User&#45;&gt;Subscription -->
<g id="edge36" class="edge"><title>User&#45;&gt;Subscription</title>
<path fill="none" stroke="#bbad47" d="M594.618,-297.072C593.82,-288.988 594.389,-280.244 598.275,-273 601.377,-267.218 605.901,-262.229 611.014,-257.978"/>
<ellipse fill="none" stroke="#bbad47" cx="595.256" cy="-301.214" rx="4.00001" ry="4.00001"/>
<polygon fill="#bbad47" stroke="#bbad47" points="611.315,-257.76 622.054,-255.542 615.365,-254.828 619.416,-251.897 619.416,-251.897 619.416,-251.897 615.365,-254.828 616.777,-248.251 611.315,-257.76 611.315,-257.76"/>
<text text-anchor="middle" x="686.862" y="-275.8" font-family="Times,serif" font-size="14.00">received_subscription_requests</text>
</g>
<!-- User&#45;&gt;User -->
<g id="edge35" class="edge"><title>User&#45;&gt;User</title>
<path fill="none" stroke="#56f891" d="M635.574,-330.406C641.715,-329.437 646,-326.968 646,-323 646,-319.032 641.715,-316.563 635.574,-315.594"/>
<polygon fill="#56f891" stroke="#56f891" points="635.527,-330.407 625.377,-326.255 630.529,-330.58 625.532,-330.752 625.532,-330.752 625.532,-330.752 630.529,-330.58 625.688,-335.249 635.527,-330.407 635.527,-330.407"/>
<polygon fill="#56f891" stroke="#56f891" points="635.527,-315.593 625.688,-310.751 630.529,-315.42 625.532,-315.248 625.532,-315.248 625.532,-315.248 630.529,-315.42 625.377,-319.745 635.527,-315.593 635.527,-315.593"/>
<text text-anchor="middle" x="682.945" y="-318.8" font-family="Times,serif" font-size="14.00">subscriptions</text>
</g>
<!-- UsersSubscribedBy -->
<g id="node19" class="node"><title>UsersSubscribedBy</title>
<ellipse fill="none" stroke="black" cx="460" cy="-237" rx="79.7316" ry="18"/>
<text text-anchor="middle" x="460" y="-232.8" font-family="Times,serif" font-size="14.00">UsersSubscribedBy</text>
</g>
<!-- User&#45;&gt;UsersSubscribedBy -->
<g id="edge37" class="edge"><title>User&#45;&gt;UsersSubscribedBy</title>
<path fill="none" stroke="#230082" d="M572.732,-305.16C550.56,-291.951 519.562,-273.484 495.681,-259.257"/>
<polygon fill="#230082" stroke="#230082" points="572.804,-305.202 579.091,-314.186 577.099,-307.761 581.395,-310.32 581.395,-310.32 581.395,-310.32 577.099,-307.761 583.698,-306.454 572.804,-305.202 572.804,-305.202"/>
<polygon fill="#230082" stroke="#230082" points="495.501,-259.15 489.213,-250.166 491.206,-256.591 486.91,-254.032 486.91,-254.032 486.91,-254.032 491.206,-256.591 484.607,-257.898 495.501,-259.15 495.501,-259.15"/>
</g>
</g>
</svg>
